<svg width="89" height="89" viewBox="0 0 89 89" fill="none" xmlns="http://www.w3.org/2000/svg">
<g id="Group 6356643">
<g id="Group">
<path id="Vector" d="M44.2328 2.34326C21.0388 2.34326 2.23523 21.1469 2.23523 44.3408C2.23523 56.7792 7.64516 67.9505 16.2328 75.6422C16.2278 75.662 16.2229 75.6768 16.2179 75.6966C19.6579 78.7654 23.6027 81.2749 27.9139 83.0864C32.908 85.1851 38.3922 86.3433 44.1536 86.3433C44.1684 86.3433 44.1882 86.3433 44.2031 86.3433C44.213 86.3433 44.2229 86.3433 44.2328 86.3433C44.4654 86.3433 44.6931 86.3383 44.9257 86.3334C44.9999 86.3334 45.0791 86.3334 45.1534 86.3284C67.9216 85.8384 86.2303 67.2278 86.2303 44.3408C86.2303 21.1469 67.4267 2.34326 44.2328 2.34326Z" fill="#71CBF4"/>
<g id="Group_2">
<path id="Vector_2" d="M21.7417 61.4368C18.1284 56.6901 15.9803 50.7654 15.9803 44.3408C15.9803 34.3772 21.1428 25.6164 28.9335 20.5827C29.4334 18.9889 30.2352 17.3209 31.4974 15.8508C37.4963 8.8867 48.7715 12.4059 50.7464 13.4948C53.1371 14.8163 53.6568 15.5736 53.6568 15.5736C54.033 16.029 54.3943 16.6675 54.9536 16.9199C55.3644 17.1031 55.8841 17.0288 56.3346 17.2021C57.4383 17.6228 58.3639 18.5088 59.0024 19.4838C59.2449 19.8501 59.4479 20.2411 59.6162 20.6421C67.3623 25.6808 72.4852 34.4119 72.4852 44.3408C72.4852 51.1367 70.0846 57.3732 66.0853 62.2486C66.1249 62.298 66.1645 62.3475 66.1992 62.402C67.2831 63.8572 68.2532 66.2627 69.1293 69.1186C75.45 62.7683 79.3552 54.0124 79.3552 44.3408C79.3552 24.9433 63.6303 9.21338 44.2278 9.21338C24.8302 9.21338 9.10034 24.9383 9.10034 44.3408C9.10034 53.4778 12.5898 61.7981 18.3017 68.0446C19.0738 65.7182 19.9202 63.773 20.8458 62.5257C21.1279 62.1644 21.4199 61.7932 21.7417 61.4368Z" fill="#7FCFF5"/>
<path id="Vector_3" d="M22.8504 44.3408C22.8504 38.6784 25.053 33.5259 28.6514 29.7048C28.4781 29.0168 28.3692 28.3387 28.3593 27.6853C28.3593 27.6853 28.2703 27.1755 28.2158 26.7103C28.1119 25.849 28.0772 23.3346 28.9335 20.5925C21.1428 25.6164 15.9803 34.3772 15.9803 44.3408C15.9803 50.7654 18.1285 56.6901 21.7417 61.4368C22.5584 60.5211 23.5335 59.6995 24.6867 59.3629C24.8154 59.3233 24.9342 59.3035 25.048 59.2887V59.2738C25.048 59.2738 25.048 59.2738 25.053 59.2738C25.053 59.2738 25.058 59.2689 25.0629 59.2689C25.0678 59.2689 25.0728 59.2639 25.0827 59.259C25.0876 59.259 25.0926 59.254 25.0975 59.254C25.1074 59.2491 25.1223 59.2441 25.1322 59.2392C25.1371 59.2392 25.1421 59.2342 25.147 59.2342C25.1619 59.2293 25.1817 59.2194 25.2015 59.2144C25.2064 59.2144 25.2114 59.2095 25.2163 59.2095C25.2411 59.1996 25.2609 59.1946 25.2906 59.1847H25.2955C25.3896 59.1501 25.5034 59.1105 25.642 59.0659C25.647 59.0659 25.6519 59.061 25.6519 59.061C25.6915 59.0461 25.7311 59.0362 25.7707 59.0214C25.7855 59.0164 25.8053 59.0115 25.8202 59.0065C25.8598 58.9917 25.8994 58.9818 25.9439 58.9669C25.9637 58.962 25.9835 58.9521 26.0033 58.9471C26.0479 58.9323 26.0875 58.9174 26.132 58.9026C26.1568 58.8927 26.1865 58.8877 26.2112 58.8778C26.2558 58.863 26.2954 58.8481 26.3399 58.8333C26.3696 58.8234 26.3993 58.8135 26.4339 58.8036C26.5032 58.7788 26.5725 58.759 26.6468 58.7343C26.6963 58.7195 26.7458 58.7046 26.7953 58.6848C26.8398 58.67 26.8844 58.6551 26.9289 58.6403C26.9636 58.6304 27.0031 58.6155 27.0378 58.6056C27.0873 58.5908 27.1368 58.571 27.1912 58.5561C27.2358 58.5413 27.2803 58.5264 27.3249 58.5116C27.3694 58.4967 27.4189 58.4819 27.4684 58.467C27.508 58.4522 27.5526 58.4423 27.5922 58.4274C27.6515 58.4076 27.7159 58.3878 27.7802 58.368C27.8 58.3631 27.8198 58.3581 27.8396 58.3482C27.904 58.3284 27.9683 58.3086 28.0327 58.2888C24.8006 54.537 22.8504 49.6666 22.8504 44.3408Z" fill="#8BD2F6"/>
<path id="Vector_4" d="M66.0854 62.2486C70.0847 57.3732 72.4852 51.1367 72.4852 44.3409C72.4852 34.4119 67.3624 25.6808 59.6162 20.6421C59.641 20.7015 59.6657 20.7609 59.6905 20.8203C60.7348 23.5574 60.4774 26.7103 59.6954 29.5762C63.3631 33.4121 65.6151 38.6142 65.6151 44.3458C65.6151 49.7953 63.5759 54.7697 60.2151 58.5463C60.2498 58.5562 60.2844 58.571 60.3191 58.5809C60.4032 58.6106 60.4873 58.6354 60.5715 58.6601C60.616 58.675 60.6556 58.6898 60.7002 58.6997C60.7497 58.7146 60.7992 58.7344 60.8487 58.7492C60.918 58.774 60.9873 58.7938 61.0516 58.8136C61.0961 58.8284 61.1407 58.8433 61.1803 58.8581C61.2248 58.873 61.2694 58.8878 61.309 58.9026C61.3486 58.9175 61.3882 58.9274 61.4278 58.9422C61.4773 58.9571 61.5268 58.9769 61.5713 58.9917C61.6159 59.0066 61.6604 59.0214 61.7 59.0363C61.7198 59.0412 61.7445 59.0511 61.7643 59.0561C61.8188 59.0759 61.8732 59.0957 61.9227 59.1105C61.9376 59.1155 61.9475 59.1204 61.9623 59.1254C62.0118 59.1452 62.0613 59.16 62.1009 59.1749C62.19 59.1897 62.2841 59.2095 62.388 59.2392C63.9174 59.6896 65.14 61.0013 66.0854 62.2486Z" fill="#8BD2F6"/>
<path id="Vector_5" d="M59.6954 29.576C59.4925 30.3135 59.2598 31.0312 59.0025 31.7143C59.0074 31.7044 59.0173 31.6945 59.0223 31.6846C59.0074 31.7093 58.9975 31.7341 58.9876 31.7588C58.9728 31.7984 58.9579 31.843 58.9431 31.8826C58.8589 32.0954 58.7599 32.2983 58.656 32.5013C58.7203 32.4914 58.7847 32.4815 58.849 32.4765C59.443 32.427 59.9033 32.729 60.2052 33.0606C61.1357 34.0852 61.1456 35.4958 60.7744 36.8272C60.5764 37.5251 60.2745 38.2329 59.6954 38.8566C59.2796 39.2971 58.7055 39.6881 58.062 39.9208C58.5075 41.3165 58.75 42.8014 58.75 44.3457C58.75 49.2458 56.3198 53.5768 52.5977 56.205C53.7559 56.5416 54.9636 56.9079 56.1267 57.2642C56.2109 57.289 56.295 57.3187 56.3841 57.3434C56.4881 57.3731 56.592 57.4078 56.6959 57.4375C56.79 57.4672 56.884 57.4969 56.983 57.5266C57.0969 57.5612 57.2107 57.5958 57.3245 57.6305C57.4087 57.6552 57.4879 57.68 57.5671 57.7047C57.7552 57.7641 57.9432 57.8235 58.1214 57.878C58.1264 57.878 58.1264 57.878 58.1313 57.8829C58.4333 57.977 58.7253 58.071 59.0025 58.1601C59.0223 58.1651 59.0421 58.175 59.0619 58.1799C59.1905 58.2195 59.3143 58.2591 59.438 58.2987C59.4677 58.3086 59.4925 58.3185 59.5222 58.3234C59.6212 58.3531 59.7152 58.3828 59.8043 58.4125C59.8488 58.4274 59.8884 58.4373 59.928 58.4521C60.0122 58.4818 60.0963 58.5066 60.1805 58.5313C60.1953 58.5363 60.2102 58.5412 60.2201 58.5462C63.5809 54.7696 65.6201 49.7952 65.6201 44.3457C65.6152 38.6141 63.3631 33.412 59.6954 29.576Z" fill="#96D6F7"/>
<path id="Vector_6" d="M29.7254 44.3408C29.7254 42.8559 29.9482 41.4304 30.3639 40.0791C29.7106 39.8465 29.1315 39.4505 28.7157 39.01C28.1366 38.3913 27.8297 37.6786 27.6367 36.9807C27.2605 35.6492 27.2704 34.2386 28.2059 33.214C28.5078 32.8824 28.9681 32.5854 29.5621 32.63C29.6215 32.6349 29.6759 32.6448 29.7304 32.6497C29.2948 31.6846 28.9087 30.6847 28.6563 29.6948C25.0629 33.5209 22.8553 38.6685 22.8553 44.3309C22.8553 49.6566 24.8055 54.5271 28.0227 58.269C28.0425 58.264 28.0673 58.2541 28.0871 58.2492C28.1762 58.2195 28.2702 58.1898 28.3643 58.1601C28.4336 58.1403 28.4979 58.1155 28.5672 58.0957C28.6167 58.0809 28.6662 58.066 28.7157 58.0512C28.7899 58.0265 28.8642 58.0067 28.9384 57.9819C28.983 57.9671 29.0275 57.9522 29.0721 57.9423C29.2057 57.9027 29.3344 57.8582 29.473 57.8186C29.5274 57.8037 29.5819 57.7839 29.6363 57.7691C29.7155 57.7443 29.7898 57.7196 29.869 57.6998C29.9185 57.6849 29.9729 57.6701 30.0224 57.6503C30.1461 57.6107 30.2748 57.5711 30.3986 57.5364C30.4679 57.5166 30.5322 57.4968 30.6015 57.4721C30.6757 57.4473 30.75 57.4275 30.8242 57.4028C30.8935 57.383 30.9579 57.3632 31.0272 57.3385C31.0965 57.3187 31.1658 57.2939 31.24 57.2741C31.3637 57.2345 31.4924 57.1949 31.6211 57.1603C31.6756 57.1454 31.73 57.1306 31.7795 57.1108C31.8736 57.0811 31.9676 57.0514 32.0616 57.0266C32.1161 57.0118 32.1705 56.992 32.225 56.9771C32.2497 56.9672 32.2745 56.9623 32.2992 56.9524C33.4129 56.6208 34.5414 56.2891 35.6056 55.9872C32.0369 53.354 29.7254 49.1171 29.7254 44.3408Z" fill="#96D6F7"/>
<path id="Vector_7" d="M56.696 40.0693C56.3842 41.7917 55.81 43.4598 54.8547 44.9397C54.7409 45.1129 54.6221 45.2812 54.4983 45.4396C53.939 46.3602 53.2708 47.2066 52.474 47.9144C51.8206 48.4935 51.093 48.9835 50.3159 49.3993V55.5368L51.3553 55.8487C51.7563 55.9625 52.172 56.0813 52.5927 56.205C56.3149 53.5768 58.7451 49.2508 58.7451 44.3457C58.7451 42.8015 58.5026 41.3166 58.0571 39.9208C57.7948 40.0148 57.5226 40.0891 57.2454 40.1237C57.0227 40.1534 56.8445 40.1287 56.696 40.0693Z" fill="#A1DAF8"/>
<path id="Vector_8" d="M35.9471 47.9095C35.0512 47.1176 34.3236 46.1475 33.7247 45.0932C33.69 45.0387 33.6504 44.9892 33.6158 44.9299C32.6853 43.4846 32.1111 41.8611 31.7993 40.1832C31.6409 40.2723 31.433 40.3119 31.1657 40.2772C30.8935 40.2426 30.6262 40.1683 30.3688 40.0792C29.958 41.4255 29.7303 42.856 29.7303 44.3408C29.7303 49.1172 32.0418 53.3541 35.6006 55.9972C36.1451 55.8438 36.6747 55.6953 37.1696 55.5616C37.1696 53.3195 37.1696 51.0773 37.1696 48.8351C36.739 48.5579 36.3282 48.251 35.9471 47.9095Z" fill="#A1DAF8"/>
<path id="Vector_9" d="M27.8297 58.3433C27.9139 58.3185 27.998 58.2888 28.0871 58.2641C28.0673 58.269 28.0425 58.2789 28.0227 58.2839C27.9584 58.3037 27.8941 58.3235 27.8297 58.3433Z" fill="#6A79AF"/>
<path id="Vector_10" d="M51.3553 55.8437L53.5628 56.502L51.5483 63.8274L47.2471 61.9812L44.3912 67.9752L41.07 62.3426L38.0953 63.8274L34.3732 56.3733L37.1697 55.5814C37.1697 55.5764 37.1697 55.5665 37.1697 55.5616C36.6747 55.6952 36.1451 55.8437 35.6007 55.9972C34.5365 56.2991 33.408 56.6307 32.2943 56.9623C32.9328 59.0313 33.9475 61.4714 35.5858 63.9908C38.417 68.3366 44.1833 72.5388 44.2526 72.4942C44.3219 72.5388 50.0882 68.3366 52.9194 63.9908C54.4835 61.5902 55.4783 59.259 56.1218 57.2544C54.9586 56.898 53.7509 56.5317 52.5927 56.1951C52.167 56.0763 51.7562 55.9576 51.3553 55.8437Z" fill="#6A79AF"/>
<path id="Vector_11" d="M28.2158 76.8747C28.2405 76.4193 28.2653 76.0728 28.2851 75.865C28.5672 72.8556 28.295 69.8314 27.8693 66.8517C27.607 65.0203 27.4436 63.1642 26.9635 61.3725C26.6566 60.2242 26.2359 59.1501 25.053 59.2936C24.9391 59.3085 24.8203 59.3283 24.6916 59.3679C23.5384 59.7045 22.5633 60.5261 21.7466 61.4418C21.4298 61.7981 21.1329 62.1694 20.8656 62.5307C19.935 63.778 19.0936 65.7182 18.3215 68.0495C17.5691 70.3164 16.8811 72.9447 16.2426 75.6472C16.2377 75.667 16.2327 75.6818 16.2278 75.7016C19.6678 78.7704 23.6126 81.2799 27.9237 83.0914C28.0376 80.7552 28.1316 78.5427 28.2059 77.1519C28.2059 77.0479 28.2108 76.9588 28.2158 76.8747Z" fill="#6A79AF"/>
<path id="Vector_12" d="M66.0854 62.2486C65.14 61.0013 63.9125 59.6846 62.3732 59.2392C62.2742 59.2095 62.1802 59.1897 62.0861 59.1748C60.918 58.9818 60.4676 59.942 60.1558 61.026C60.136 61.1002 60.1162 61.1695 60.0964 61.2438C59.6163 63.0355 59.4529 64.8916 59.1906 66.723C58.8689 68.9602 58.6362 71.2173 58.661 73.4792C58.6659 73.8554 58.6758 74.2316 58.6956 74.6078C58.7154 74.9839 58.7402 75.3601 58.7748 75.7363C58.7996 76.0184 58.8342 76.5381 58.8689 77.2311C58.8738 77.3251 58.8788 77.4241 58.8837 77.528C58.9629 79.0525 59.0619 81.2699 59.1757 83.5616C63.5364 81.8886 67.5455 79.5178 71.0697 76.5728C70.4708 73.9692 69.8273 71.4004 69.1294 69.1186C68.2533 66.2627 67.2832 63.8522 66.1993 62.402C66.1646 62.3525 66.125 62.2981 66.0854 62.2486Z" fill="#6A79AF"/>
<path id="Vector_13" d="M57.864 34.7979C57.8689 34.793 57.8739 34.788 57.8788 34.7831C58.156 34.5059 58.5173 34.303 58.9776 34.2683C59.3786 34.2337 59.6953 34.4416 59.8983 34.6643C60.5318 35.3572 60.5368 36.3125 60.2843 37.2133C60.1507 37.6836 59.9478 38.1686 59.5518 38.5844C59.1608 39.0051 58.552 39.3565 57.8937 39.4456C57.171 39.5397 57.0968 38.8071 57.077 38.4507C57.072 38.3765 57.072 38.3023 57.0671 38.228C57.0126 38.4903 56.9532 38.7477 56.8938 39.0101C56.8641 39.1387 56.8344 39.2674 56.8047 39.3961C56.3296 41.4106 55.6267 43.5835 54.5032 45.4347C54.6269 45.2713 54.7457 45.108 54.8595 44.9348C55.8099 43.4548 56.389 41.7868 56.7008 40.0643C56.8493 40.1237 57.0225 40.1485 57.2453 40.1188C57.5224 40.0792 57.7947 40.0099 58.057 39.9158C58.7054 39.6783 59.2796 39.2922 59.6904 38.8517C60.2695 38.233 60.5764 37.5202 60.7694 36.8223C61.1456 35.4909 61.1357 34.0802 60.2002 33.0557C59.8983 32.724 59.4379 32.4271 58.844 32.4716C58.7796 32.4766 58.7153 32.4865 58.651 32.4964C58.6411 32.5162 58.6312 32.536 58.6213 32.5558C58.3144 33.2883 58.0719 34.0406 57.864 34.7979Z" fill="#F8BB94"/>
<path id="Vector_14" d="M57.8937 39.4456C58.552 39.3565 59.1559 39.0051 59.5518 38.5844C59.9429 38.1636 60.1508 37.6835 60.2844 37.2133C60.5368 36.3125 60.5319 35.3572 59.8983 34.6643C59.6954 34.4415 59.3836 34.2386 58.9777 34.2683C58.5124 34.3079 58.1511 34.5108 57.8789 34.783C57.8739 34.788 57.869 34.7929 57.864 34.7979C57.5522 35.9264 57.3146 37.0797 57.0671 38.228C57.0721 38.3022 57.0721 38.3765 57.077 38.4507C57.0968 38.8071 57.1711 39.5396 57.8937 39.4456Z" fill="#F7B18F"/>
<path id="Vector_15" d="M31.7943 40.1881C32.1111 41.866 32.6803 43.4945 33.6108 44.9348C33.6454 44.9892 33.685 45.0437 33.7197 45.0981C32.804 43.4846 32.1853 41.6631 31.7448 39.9258C31.6656 39.6189 31.5913 39.312 31.522 39.0101C31.4577 38.7329 31.3983 38.4508 31.3389 38.1736C31.334 38.3172 31.329 38.4656 31.3241 38.6092C31.3043 38.9655 31.2251 39.703 30.5074 39.604C29.8491 39.515 29.2452 39.1635 28.8493 38.7428C28.4582 38.3221 28.2504 37.842 28.1167 37.3718C27.8643 36.4709 27.8692 35.5157 28.5028 34.8227C28.7057 34.6 29.0175 34.3971 29.4234 34.4267C29.8887 34.4663 30.25 34.6693 30.5222 34.9415C30.5618 34.9811 30.5915 35.0207 30.6262 35.0603C30.5123 34.6198 30.3836 34.1892 30.2401 33.7585C30.0619 33.3972 29.8887 33.031 29.7204 32.6548C29.6659 32.6449 29.6115 32.6399 29.5521 32.635C28.9581 32.5855 28.4978 32.8874 28.1959 33.219C27.2654 34.2436 27.2555 35.6543 27.6267 36.9857C27.8247 37.6836 28.1266 38.3914 28.7057 39.015C29.1215 39.4605 29.7006 39.8515 30.3539 40.0842C30.6113 40.1782 30.8786 40.2475 31.1508 40.2821C31.4231 40.3168 31.6309 40.2772 31.7943 40.1881Z" fill="#F8BB94"/>
<path id="Vector_16" d="M29.4234 34.4268C29.0225 34.3921 28.7057 34.6 28.5028 34.8227C27.8693 35.5157 27.8643 36.471 28.1167 37.3718C28.2504 37.842 28.4533 38.3271 28.8493 38.7428C29.2403 39.1636 29.8491 39.515 30.5074 39.6041C31.23 39.6981 31.3043 38.9656 31.3241 38.6092C31.334 38.4657 31.3389 38.3172 31.3389 38.1736C31.1162 37.1342 30.8935 36.0898 30.6212 35.0603C30.5866 35.0207 30.552 34.9811 30.5173 34.9415C30.2451 34.6693 29.8838 34.4664 29.4234 34.4268Z" fill="#F7B18F"/>
<path id="Vector_17" d="M37.8477 43.2915C39.0851 43.2668 40.0454 41.4849 41.0254 40.8464C41.164 40.7573 42.144 40.3217 43.0696 39.9901C42.9557 39.9406 42.8716 39.8812 42.832 39.8119C42.6687 39.4952 43.2874 38.7379 44.2723 38.7379C45.2573 38.7379 45.876 39.4952 45.7127 39.8119C45.6681 39.8961 45.5642 39.9604 45.4206 40.0149C46.3264 40.3415 47.2619 40.7573 47.4005 40.8464C48.3805 41.4849 49.3407 43.2668 50.5781 43.2915C52.0779 43.3212 54.0478 40.0248 54.6715 38.921C55.7455 37.0303 56.4682 34.8574 56.681 32.6696C56.681 32.6449 56.686 32.6251 56.686 32.6003C55.8049 29.591 55.4684 26.4975 54.5824 23.493C52.5926 25.2403 50.6474 25.9778 47.9548 26.1213C42.931 26.3886 37.8527 25.5372 33.1901 23.6465C33.5614 23.795 32.6556 30.0067 32.5516 30.665C32.413 31.5362 32.2398 32.4321 32.0369 33.323C32.2398 35.2781 32.7942 37.2134 33.7593 38.921C34.378 40.0248 36.348 43.3212 37.8477 43.2915ZM48.0291 32.5013C48.7765 32.2291 49.5288 31.9074 50.3356 31.8579C50.9939 31.8183 51.8106 31.942 52.4442 32.1351C52.6075 32.1846 53.8201 32.6647 54.2706 32.9963C54.4092 33.0953 54.2953 33.3081 54.132 33.2636C53.4291 33.0656 52.4689 32.9963 51.6423 33.0161C51.6671 33.026 51.6918 33.0359 51.7116 33.0508C52.558 33.521 52.9985 34.4515 53.0975 35.387C53.1024 35.4266 53.1025 35.4612 53.1074 35.486C53.1222 35.5899 53.1222 35.6889 53.1222 35.7681C53.1173 35.7533 53.1124 35.7384 53.1074 35.7236C53.0926 35.877 53.048 36.0255 52.9738 36.1641C52.9837 36.1542 52.9936 36.1443 53.0035 36.1344C52.9589 36.2136 52.8896 36.3274 52.7906 36.4462C52.1868 37.1738 51.2414 37.2728 50.7365 37.3223C50.4346 37.352 49.1329 37.4559 48.5389 36.857C48.4944 36.8075 48.2964 36.6046 48.3112 36.5848C48.3112 36.5848 48.3162 36.5848 48.3261 36.5897C48.2518 36.4907 48.1974 36.3819 48.1578 36.2631C48.1578 36.273 48.1578 36.2779 48.1627 36.2878C48.1578 36.2779 48.1578 36.2631 48.1528 36.2532C48.1479 36.2433 48.1479 36.2334 48.1479 36.2284C48.1033 36.0799 48.0885 35.9364 48.0984 35.7978C48.0588 35.4365 48.0934 35.0702 48.1924 34.7237C48.3459 34.204 48.6577 33.7437 49.0636 33.3923C48.9299 33.417 48.7864 33.4418 48.6329 33.4616C48.2271 33.521 47.6826 33.4863 47.6628 33.031C47.648 32.7884 47.8113 32.5805 48.0291 32.5013ZM34.7988 32.9914C35.2492 32.6647 36.4618 32.1846 36.6252 32.1301C37.2587 31.9321 38.0754 31.8084 38.7337 31.853C39.5355 31.9024 40.2928 32.2242 41.0402 32.4964C41.263 32.5756 41.4213 32.7884 41.4114 33.0211C41.3916 33.4814 40.8521 33.5111 40.4413 33.4517C40.2879 33.4319 40.1493 33.4071 40.0107 33.3824C40.4166 33.7338 40.7284 34.1941 40.8818 34.7138C40.9858 35.0603 41.0155 35.4266 40.9759 35.7879C40.9858 35.9314 40.9709 36.07 40.9264 36.2185C40.9214 36.2284 40.9214 36.2383 40.9165 36.2482C40.9115 36.2581 40.9115 36.273 40.9066 36.2829C40.9115 36.273 40.9115 36.268 40.9115 36.2581C40.8719 36.3769 40.8175 36.4858 40.7432 36.5848C40.7482 36.5798 40.7531 36.5798 40.7581 36.5798C40.7729 36.5947 40.5799 36.8026 40.5304 36.8521C39.9365 37.451 38.6347 37.347 38.3328 37.3173C37.823 37.2629 36.8825 37.1688 36.2787 36.4412C36.1797 36.3225 36.1104 36.2086 36.0659 36.1294C36.0758 36.1393 36.0857 36.1492 36.0956 36.1591C36.0213 36.0205 35.9768 35.872 35.9619 35.7186C35.957 35.7335 35.952 35.7483 35.9471 35.7632C35.9421 35.684 35.9471 35.585 35.9619 35.481C35.9619 35.4563 35.9669 35.4216 35.9718 35.382C36.0708 34.4466 36.5113 33.516 37.3577 33.0458C37.3825 33.031 37.4023 33.026 37.427 33.0112C36.6004 32.9914 35.6352 33.0607 34.9373 33.2586C34.774 33.3081 34.6602 33.0904 34.7988 32.9914Z" fill="#F8BB94"/>
<path id="Vector_18" d="M45.7127 39.807C45.876 39.4902 45.2573 38.7329 44.2723 38.7329C43.2874 38.7329 42.6687 39.4902 42.832 39.807C42.8666 39.8763 42.9557 39.9357 43.0696 39.9852C43.6041 40.2227 44.8366 40.2277 45.4157 40.0099C45.5592 39.9604 45.6681 39.8911 45.7127 39.807Z" fill="#EDA585"/>
<path id="Vector_19" d="M48.0687 43.5934C47.6777 43.1381 47.2372 42.5738 46.7224 42.262C45.9998 41.8314 45.2078 41.866 44.4209 41.866C44.3862 41.866 44.3516 41.866 44.3169 41.866C44.2823 41.866 44.2476 41.866 44.213 41.866C43.426 41.866 42.634 41.8314 41.9114 42.262C41.3917 42.5738 40.9561 43.1381 40.5651 43.5934C40.3968 43.7914 40.2285 43.9944 40.1048 44.2319C39.4514 45.4792 40.0701 47.3502 41.0205 48.2659C41.5649 48.7905 42.3371 48.9984 43.0746 48.9935C43.525 48.9935 44.0496 48.845 44.3219 48.5084C44.5941 48.845 45.1138 48.9935 45.5692 48.9935C46.3116 48.9935 47.0788 48.7856 47.6233 48.2659C48.5736 47.3502 49.1923 45.4842 48.5389 44.2319C48.4053 43.9944 48.237 43.7914 48.0687 43.5934ZM47.2916 45.8703C47.1976 46.1524 47.0689 46.4197 46.9056 46.6523C45.9602 47.9937 44.0298 48.0184 42.6934 47.3502C42.1638 47.0829 41.7382 46.6672 41.4709 46.1524C41.3075 46.0237 41.164 45.8752 41.0452 45.7069C40.8225 45.3803 40.7433 44.9744 40.9116 44.6032C40.9957 44.4151 41.1195 44.3012 41.2679 44.2319C41.6342 43.9449 42.1836 43.7568 42.5845 43.5984C43.2676 43.3212 44.0348 43.1777 44.7723 43.1727C45.3563 43.1678 46.2671 43.2519 46.8313 43.6479C46.9105 43.6726 46.9848 43.6974 47.0541 43.737C47.8361 44.1577 47.7123 45.1526 47.2916 45.8703Z" fill="#F8BB94"/>
<path id="Vector_20" d="M43.6883 43.93C43.9456 43.9052 44.1981 43.8755 44.4554 43.8409C44.5247 43.831 44.6039 43.8161 44.6782 43.8062C44.698 43.8013 44.7178 43.8013 44.7425 43.7963C44.7722 43.7914 44.8069 43.7864 44.8415 43.7765C45.1335 43.7221 45.4602 43.6528 45.7819 43.6132C45.7869 43.6132 45.7869 43.6132 45.7918 43.6132C45.8611 43.6033 45.9304 43.5983 45.9997 43.5934C46.0146 43.5934 46.0294 43.5884 46.0443 43.5884C46.1086 43.5835 46.168 43.5835 46.2324 43.5835C46.2522 43.5835 46.272 43.5835 46.2918 43.5835C46.3511 43.5835 46.4056 43.5885 46.46 43.5934C46.4848 43.5934 46.5046 43.5983 46.5293 43.5983C46.5788 43.6033 46.6283 43.6132 46.6778 43.6231C46.6927 43.628 46.7075 43.628 46.7224 43.628C46.7224 43.628 46.7224 43.628 46.7174 43.628C46.7521 43.6379 46.7917 43.6429 46.8263 43.6528C46.2621 43.2568 45.3513 43.1727 44.7673 43.1776C44.0298 43.1826 43.2626 43.3261 42.5795 43.6033C42.1786 43.7666 41.6292 43.9547 41.2629 44.2369C41.5055 44.1181 41.8123 44.1181 42.1093 44.0834C42.6389 44.024 43.1636 43.9844 43.6883 43.93Z" fill="#EDA585"/>
<path id="Vector_21" d="M46.8016 46.4543C45.9404 47.1423 44.6634 47.2165 43.5745 47.0087C43.5547 47.0037 43.5299 46.9988 43.5101 46.9938C43.4557 46.9839 43.4012 46.974 43.3468 46.9592C43.2726 46.9394 43.1983 46.9245 43.1241 46.9047C42.5796 46.7562 41.9411 46.5236 41.4659 46.1474C41.7332 46.6622 42.1589 47.0829 42.6885 47.3452C44.0298 48.0184 45.9602 47.9887 46.9006 46.6473C47.064 46.4147 47.1976 46.1474 47.2867 45.8653C47.1531 46.1078 46.9798 46.3108 46.8016 46.4543Z" fill="#EDA585"/>
<path id="Vector_22" d="M47.0442 43.7369C46.9749 43.7023 46.9006 43.6726 46.8214 43.6479C46.7868 43.638 46.7472 43.633 46.7126 43.6231C46.0889 44.0884 45.3861 44.42 44.5595 44.4992C43.9012 44.5635 42.4806 44.7368 42.05 44.0785L42.1045 44.0735C41.8075 44.1032 41.5006 44.1082 41.2581 44.227C41.1096 44.2963 40.9858 44.4101 40.9017 44.5982C40.7334 44.9694 40.8126 45.3753 41.0353 45.7019C41.1492 45.8702 41.2977 46.0138 41.461 46.1474C41.9362 46.5236 42.5747 46.7562 43.1191 46.9047C42.8766 46.8404 42.5796 46.7364 42.2777 46.6028C43.3221 45.0882 45.6137 45.202 46.7769 46.4642C45.9157 47.1373 44.6486 47.2116 43.5695 47.0086C44.6535 47.2165 45.9355 47.1423 46.7967 46.4543C46.9749 46.3108 47.1481 46.1029 47.2867 45.8702C47.7124 45.1525 47.8361 44.1577 47.0442 43.7369Z" fill="#B64936"/>
<path id="Vector_23" d="M44.8367 43.7716C45.1287 43.7172 45.4554 43.6479 45.7771 43.6083C45.4554 43.6479 45.1336 43.7172 44.8367 43.7716Z" fill="#B64936"/>
<path id="Vector_24" d="M46.6779 43.6132C46.6284 43.6033 46.5789 43.5934 46.5294 43.5885C46.5046 43.5835 46.4848 43.5835 46.4601 43.5835C46.4056 43.5786 46.3512 43.5736 46.2918 43.5736C46.272 43.5736 46.2522 43.5736 46.2324 43.5736C46.173 43.5736 46.1087 43.5736 46.0443 43.5786C46.0295 43.5786 46.0146 43.5786 45.9998 43.5835C45.9305 43.5885 45.8612 43.5934 45.7919 43.6033C45.7869 43.6033 45.7869 43.6033 45.782 43.6033C45.4603 43.6429 45.1336 43.7122 44.8416 43.7666C44.8069 43.7716 44.7772 43.7815 44.7426 43.7864C44.7228 43.7914 44.703 43.7914 44.6782 43.7963C44.599 43.8112 44.5248 43.8211 44.4555 43.831C44.2031 43.8656 43.9457 43.8953 43.6883 43.9201C43.1636 43.9745 42.639 44.0141 42.1094 44.0686L42.0549 44.0735C42.4855 44.7269 43.9061 44.5586 44.5644 44.4942C45.391 44.4101 46.0889 44.0834 46.7175 43.6182C46.7175 43.6182 46.7175 43.6182 46.7224 43.6182C46.7076 43.6182 46.6927 43.6182 46.6779 43.6132Z" fill="#FBE1ED"/>
<path id="Vector_25" d="M43.5101 46.9988C43.5299 47.0037 43.5546 47.0087 43.5744 47.0136C44.6535 47.2166 45.9206 47.1423 46.7818 46.4692C45.6236 45.2021 43.327 45.0882 42.2826 46.6078C42.5845 46.7414 42.8815 46.8404 43.124 46.9097C43.1983 46.9295 43.2725 46.9493 43.3468 46.9641C43.4012 46.974 43.4557 46.9889 43.5101 46.9988Z" fill="#E14E45"/>
<path id="Vector_26" d="M41.0649 62.3475L44.3861 67.9802L47.2421 61.9862L44.3119 60.729L41.0649 62.3475Z" fill="#D9D9D9"/>
<path id="Vector_27" d="M50.3159 55.5369V49.3993C49.6675 49.7458 48.9844 50.0329 48.2865 50.2606C48.0143 50.3497 45.6088 50.8545 44.406 50.9436C44.3466 50.9585 44.2823 50.9585 44.213 50.9535C44.1437 50.9535 44.0744 50.9585 44.02 50.9535C42.8172 50.8545 40.4117 50.3447 40.1394 50.2556C39.0901 49.9141 38.0854 49.4389 37.1697 48.8351C37.1697 51.0773 37.1697 53.3194 37.1697 55.5616C37.1697 55.5666 37.1697 55.5765 37.1697 55.5814L44.3169 60.7241L50.3159 55.5369Z" fill="#F7B18F"/>
<path id="Vector_28" d="M37.1647 55.5864L34.3682 56.3734L38.0903 63.8275L41.065 62.3476L44.3119 60.729L37.1647 55.5864Z" fill="white"/>
<path id="Vector_29" d="M44.3119 60.729L47.2421 61.9862L51.5482 63.8275L53.5627 56.502L51.3552 55.8437L50.3158 55.5369L44.3119 60.729Z" fill="white"/>
<path id="Vector_30" d="M59.1806 83.5616C59.0667 81.2749 58.9677 79.0574 58.8885 77.528C58.8836 77.4241 58.8787 77.3251 58.8737 77.231C58.8391 76.5381 58.8044 76.0134 58.7797 75.7362C58.745 75.3601 58.7153 74.9839 58.7005 74.6077C58.6807 74.2316 58.6708 73.8554 58.6658 73.4792C58.6411 71.2222 58.8787 68.9602 59.1954 66.723C59.4578 64.8916 59.6211 63.0355 60.1012 61.2438C60.121 61.1695 60.1408 61.0953 60.1606 61.026C60.4724 59.9371 60.9228 58.9818 62.091 59.1748C62.0514 59.16 62.0019 59.1451 61.9524 59.1253C61.9375 59.1204 61.9276 59.1154 61.9128 59.1105C61.8633 59.0956 61.8138 59.0758 61.7544 59.056C61.7346 59.0511 61.7098 59.0412 61.69 59.0362C61.6504 59.0214 61.6059 59.0065 61.5613 58.9917C61.5168 58.9768 61.4673 58.962 61.4178 58.9422C61.3782 58.9273 61.3386 58.9174 61.299 58.9026C61.2545 58.8877 61.2149 58.8729 61.1703 58.858C61.1307 58.8432 61.0862 58.8283 61.0416 58.8135C60.9773 58.7937 60.908 58.7689 60.8387 58.7491C60.7892 58.7343 60.7397 58.7194 60.6902 58.6996C60.6506 58.6848 60.6061 58.67 60.5615 58.6601C60.4823 58.6353 60.3982 58.6056 60.3091 58.5809C60.2744 58.571 60.2398 58.5611 60.2051 58.5462C60.1903 58.5413 60.1754 58.5363 60.1656 58.5314C60.0814 58.5066 60.0022 58.4769 59.9131 58.4522C59.8735 58.4373 59.829 58.4274 59.7894 58.4126C59.6953 58.3829 59.6013 58.3532 59.5072 58.3235C59.4776 58.3136 59.4528 58.3037 59.4231 58.2987C59.2994 58.2591 59.1756 58.2195 59.0469 58.1799C59.0271 58.175 59.0073 58.1651 58.9875 58.1601C58.7054 58.071 58.4134 57.977 58.1164 57.883C58.1115 57.883 58.1115 57.883 58.1065 57.878C57.9234 57.8186 57.7402 57.7642 57.5522 57.7048C57.473 57.68 57.3888 57.6553 57.3096 57.6305C57.1958 57.5959 57.0819 57.5612 56.9681 57.5266C56.8741 57.4969 56.78 57.4672 56.681 57.4375C56.5771 57.4078 56.4731 57.3731 56.3692 57.3435C56.285 57.3187 56.2009 57.289 56.1118 57.2643C55.4684 59.2689 54.4735 61.6001 52.9094 64.0007C50.0782 68.3465 44.3119 72.5487 44.2426 72.5041C44.1733 72.5487 38.407 68.3465 35.5758 64.0007C33.9375 61.4863 32.9228 59.0412 32.2843 56.9722C32.2596 56.9821 32.2348 56.9871 32.2101 56.997C32.1557 57.0118 32.1012 57.0316 32.0468 57.0465C31.9527 57.0762 31.8587 57.1059 31.7646 57.1306C31.7102 57.1455 31.6557 57.1653 31.6062 57.1801C31.4776 57.2197 31.3538 57.2593 31.2251 57.294C31.1558 57.3138 31.0865 57.3385 31.0123 57.3583C30.943 57.3781 30.8787 57.3979 30.8094 57.4226C30.7351 57.4474 30.6609 57.4672 30.5866 57.4919C30.5173 57.5117 30.453 57.5315 30.3837 57.5563C30.255 57.5959 30.1313 57.6355 30.0075 57.6701C29.958 57.685 29.9036 57.6998 29.8541 57.7196C29.7749 57.7444 29.7006 57.7691 29.6214 57.7889C29.567 57.8038 29.5126 57.8236 29.4581 57.8384C29.3245 57.878 29.1908 57.9226 29.0572 57.9622C29.0126 57.977 28.9681 57.9919 28.9236 58.0018C28.8493 58.0265 28.7751 58.0463 28.7008 58.071C28.6513 58.0859 28.6018 58.1007 28.5523 58.1156C28.483 58.1354 28.4137 58.1601 28.3494 58.1799C28.2554 58.2096 28.1613 58.2393 28.0722 58.269C27.9831 58.2987 27.899 58.3235 27.8148 58.3482C27.795 58.3532 27.7752 58.3581 27.7554 58.368C27.6911 58.3878 27.6317 58.4076 27.5674 58.4274C27.5278 58.4423 27.4832 58.4522 27.4436 58.467C27.3941 58.4819 27.3496 58.4967 27.3001 58.5116C27.2555 58.5264 27.211 58.5413 27.1664 58.5561C27.1169 58.571 27.0625 58.5908 27.013 58.6056C26.9734 58.6155 26.9388 58.6304 26.9041 58.6403C26.8596 58.6551 26.815 58.67 26.7705 58.6848C26.721 58.6997 26.6715 58.7194 26.622 58.7343C26.5477 58.759 26.4784 58.7788 26.4091 58.8036C26.3794 58.8135 26.3448 58.8234 26.3151 58.8333C26.2706 58.8481 26.231 58.863 26.1864 58.8778C26.1617 58.8877 26.132 58.8976 26.1072 58.9026C26.0627 58.9174 26.0181 58.9323 25.9785 58.9471C25.9587 58.9521 25.9389 58.962 25.9191 58.9669C25.8795 58.9818 25.835 58.9966 25.7954 59.0065C25.7805 59.0115 25.7607 59.0164 25.7459 59.0214C25.7063 59.0362 25.6618 59.0511 25.6271 59.061C25.6222 59.061 25.6172 59.0659 25.6172 59.0659C25.4786 59.1105 25.3648 59.155 25.2707 59.1847H25.2658C25.241 59.1946 25.2163 59.2045 25.1915 59.2095C25.1866 59.2095 25.1816 59.2144 25.1767 59.2144C25.1569 59.2194 25.1371 59.2293 25.1222 59.2342C25.1173 59.2342 25.1123 59.2392 25.1074 59.2392C25.0925 59.2441 25.0826 59.2491 25.0727 59.254C25.0678 59.254 25.0628 59.259 25.0579 59.259C25.0529 59.2639 25.0431 59.2639 25.0381 59.2689C25.0332 59.2738 25.0332 59.2738 25.0282 59.2738V59.2887C26.2112 59.1451 26.6319 60.2192 26.9388 61.3675C27.4189 63.1593 27.5822 65.0154 27.8445 66.8467C28.2702 69.8264 28.5424 72.8506 28.2603 75.86C28.2405 76.0679 28.2207 76.4143 28.191 76.8697C28.1861 76.9538 28.1811 77.0429 28.1762 77.137C28.1019 78.5328 28.0079 80.7403 27.894 83.0765C32.8882 85.1752 38.3724 86.3334 44.1337 86.3334C44.1486 86.3334 44.1684 86.3334 44.1832 86.3334C44.4258 86.3334 44.6633 86.3284 44.9059 86.3235C44.9801 86.3235 45.0593 86.3235 45.1336 86.3185C50.0881 86.2146 54.8101 85.2395 59.1806 83.5616Z" fill="#7486C2"/>
<path id="Vector_31" d="M28.2158 26.7053C28.2702 27.1706 28.3593 27.6804 28.3593 27.6804C28.3692 28.3337 28.4781 29.0168 28.6514 29.6998C28.9038 30.6848 29.2899 31.6846 29.7254 32.6548C29.8937 33.0309 30.067 33.3972 30.2451 33.7585C30.3887 34.1891 30.5124 34.6247 30.6312 35.0603C30.9034 36.0848 31.1212 37.1292 31.3489 38.1736C31.4083 38.4508 31.4726 38.7329 31.532 39.0101C31.6013 39.312 31.6756 39.6189 31.7548 39.9258C32.1953 41.6631 32.814 43.4845 33.7297 45.0981C34.3286 46.1524 35.0562 47.1225 35.9521 47.9144C36.3332 48.251 36.744 48.5579 37.1697 48.84C38.0853 49.4439 39.0901 49.919 40.1394 50.2606C40.4117 50.3497 42.8172 50.8545 44.0199 50.9585C44.0793 50.9585 44.1437 50.9585 44.213 50.9585C44.2823 50.9585 44.3516 50.9634 44.406 50.9486C45.6088 50.8595 48.0143 50.3546 48.2865 50.2655C48.9894 50.0378 49.6674 49.7508 50.3159 49.4043C51.0929 48.9885 51.8205 48.4985 52.4739 47.9194C53.2708 47.2116 53.939 46.3652 54.4983 45.4446C55.6268 43.5885 56.3247 41.4205 56.7999 39.406C56.8296 39.2774 56.8592 39.1487 56.8889 39.02C56.9483 38.7626 57.0028 38.5003 57.0622 38.2379C57.3097 37.0896 57.5472 35.9364 57.8591 34.8078C58.067 34.0456 58.3095 33.2982 58.6164 32.5706C58.6263 32.5508 58.6362 32.531 58.6461 32.5112C58.75 32.3083 58.849 32.1054 58.9331 31.8925C58.948 31.8529 58.9628 31.8084 58.9777 31.7688C58.9876 31.744 59.0024 31.7193 59.0123 31.6945C59.0074 31.7044 58.9975 31.7143 58.9925 31.7242C59.2499 31.0412 59.4875 30.3235 59.6855 29.586C60.4675 26.7251 60.7249 23.5673 59.6805 20.8301C59.6558 20.7707 59.631 20.7113 59.6063 20.6519C59.438 20.251 59.2351 19.86 58.9925 19.4937C58.354 18.5236 57.4285 17.6327 56.3247 17.2119C55.8743 17.0387 55.3546 17.1179 54.9437 16.9298C54.3844 16.6774 54.0231 16.0389 53.6469 15.5835C53.6469 15.5835 53.1272 14.8262 50.7366 13.5047C48.7617 12.4108 37.4815 8.89164 31.4875 15.8607C30.2204 17.3307 29.4235 19.0037 28.9236 20.5925C28.0772 23.3297 28.1119 25.8441 28.2158 26.7053ZM47.6134 48.2609C47.0689 48.7856 46.2968 48.9935 45.5593 48.9885C45.1088 48.9885 44.5842 48.84 44.312 48.5034C44.0397 48.84 43.52 48.9885 43.0647 48.9885C42.3222 48.9885 41.555 48.7806 41.0106 48.2609C40.0602 47.3452 39.4415 45.4792 40.0949 44.227C40.2186 43.9943 40.3869 43.7914 40.5552 43.5885C40.9462 43.1331 41.3867 42.5689 41.9015 42.257C42.6241 41.8264 43.4161 41.8611 44.2031 41.8611C44.2377 41.8611 44.2724 41.8611 44.307 41.8611C44.3417 41.8611 44.3763 41.8611 44.411 41.8611C45.1979 41.8611 45.9899 41.8264 46.7125 42.257C47.2322 42.5689 47.6678 43.1331 48.0588 43.5885C48.2271 43.7865 48.3954 43.9894 48.5191 44.227C49.1824 45.4792 48.5637 47.3452 47.6134 48.2609ZM32.5467 30.67C32.6507 30.0166 33.5564 23.8048 33.1852 23.6514C37.8478 25.5422 42.9261 26.3935 47.9499 26.1262C50.6425 25.9827 52.5877 25.2452 54.5775 23.498C55.4635 26.4974 55.8 29.5909 56.6811 32.6053C56.6811 32.63 56.6761 32.6498 56.6761 32.6746C56.4633 34.8623 55.7357 37.0302 54.6666 38.9259C54.0429 40.0247 52.073 43.3261 50.5732 43.2964C49.3358 43.2717 48.3756 41.4898 47.3956 40.8513C47.257 40.7622 46.3215 40.3514 45.4157 40.0198C44.8317 40.2376 43.6042 40.2326 43.0696 39.9951C42.144 40.3267 41.169 40.7573 41.0254 40.8513C40.0454 41.4898 39.0852 43.2717 37.8478 43.2964C36.348 43.3261 34.3781 40.0297 33.7544 38.9259C32.7892 37.2183 32.2299 35.283 32.032 33.3279C32.2349 32.437 32.4081 31.5411 32.5467 30.67Z" fill="#4A1B24"/>
<path id="Vector_32" d="M49.0538 33.3873C48.6479 33.7388 48.3361 34.1991 48.1827 34.7188C48.0787 35.0653 48.049 35.4315 48.0886 35.7929C48.0985 35.6691 48.1183 35.5503 48.1579 35.4216C48.445 34.4565 49.5141 33.9368 50.3506 33.8378C51.3257 33.7239 52.5829 34.11 52.9838 35.0306C53.0531 35.189 53.0877 35.3375 53.1026 35.4761C53.1026 35.4513 53.0976 35.4216 53.0927 35.3771C52.9937 34.4416 52.5532 33.5111 51.7068 33.0409C51.6821 33.026 51.6623 33.0211 51.6375 33.0062C51.4098 33.0112 51.192 33.0211 50.9941 33.0409C50.2269 33.1201 49.727 33.2636 49.0538 33.3873Z" fill="#EFB08E"/>
<path id="Vector_33" d="M52.5879 34.9564C52.4344 34.8277 52.2513 34.7436 51.8751 34.5703C51.8751 34.5703 51.6474 34.4713 51.395 34.3971C51.8058 34.699 52.0533 35.1989 52.0087 35.7434C52.0038 35.7978 51.9988 35.8473 51.9889 35.8968C51.9889 35.9067 51.984 35.9166 51.984 35.9265C51.9741 35.9661 51.9642 36.0057 51.9543 36.0453C51.9494 36.0552 51.9494 36.0651 51.9444 36.0701C51.9296 36.1097 51.9197 36.1493 51.9048 36.1839C51.8999 36.1938 51.8999 36.1988 51.8949 36.2087C51.8801 36.2483 51.8603 36.2829 51.8405 36.3225C51.8405 36.3225 51.8405 36.3225 51.8405 36.3274C51.5633 36.8373 51.004 37.1639 50.3853 37.1144C49.9299 37.0748 49.5438 36.8373 49.2964 36.4957C49.4498 36.4512 49.5686 36.3225 49.5834 36.1542C49.5983 35.976 49.4894 35.8176 49.331 35.7582C49.2964 35.7434 49.2617 35.7335 49.2271 35.7335C49.1528 35.7285 49.0835 35.7434 49.0192 35.7731C49.0142 35.7384 49.0142 35.7038 49.0142 35.6691C49.0142 35.6592 49.0142 35.6494 49.0142 35.6395C49.0142 35.59 49.0142 35.5355 49.0192 35.4811C49.039 35.2534 49.1083 35.0455 49.2172 34.8624C49.034 34.9762 48.8608 35.0999 48.7024 35.2484C48.5539 35.387 48.4252 35.5405 48.3262 35.7137C48.247 35.8523 48.1233 36.0899 48.1629 36.2582C48.2025 36.3769 48.2569 36.4858 48.3312 36.5848C48.3757 36.6145 48.5292 36.7779 48.6727 36.8422C49.2865 37.1045 50.0586 37.2035 50.7218 37.1243C51.0089 37.1095 51.2911 37.0501 51.5633 36.9758C51.8355 36.8917 52.1028 36.7828 52.3503 36.6442C52.5928 36.5106 52.7858 36.367 52.9739 36.1592C53.0482 36.0206 53.0927 35.8721 53.1076 35.7186C52.9492 35.2979 52.7165 35.0653 52.5879 34.9564Z" fill="white"/>
<path id="Vector_34" d="M51.0484 35.4464C51.088 35.5503 51.1028 35.6642 51.0929 35.7879C51.0583 36.174 50.7662 36.4611 50.4396 36.4363C50.1129 36.4066 49.8704 36.07 49.905 35.684C49.9149 35.5602 49.9545 35.4513 50.009 35.3573C49.8951 35.387 49.7813 35.4315 49.6773 35.486C49.6526 35.5751 49.5734 35.6394 49.4744 35.6444C49.4694 35.6444 49.4595 35.6394 49.4546 35.6394C49.4101 35.6741 49.3655 35.7137 49.3259 35.7582C49.4843 35.8176 49.5932 35.976 49.5783 36.1542C49.5635 36.3225 49.4447 36.4512 49.2913 36.4957C49.5387 36.8372 49.9248 37.0748 50.3802 37.1144C50.9989 37.1689 51.5582 36.8422 51.8354 36.3274C51.7067 35.9364 51.4196 35.6196 51.0484 35.4464Z" fill="#5E3923"/>
<path id="Vector_35" d="M49.0042 35.6394C49.0042 35.6493 49.0042 35.6592 49.0042 35.6691C49.0042 35.7038 49.0091 35.7384 49.0091 35.7731C49.0734 35.7434 49.1427 35.7236 49.217 35.7335C49.2516 35.7384 49.2863 35.7483 49.3209 35.7582C49.3605 35.7186 49.4051 35.679 49.4496 35.6394C49.3358 35.6295 49.2467 35.5405 49.2417 35.4266C49.2368 35.3029 49.3358 35.2039 49.4595 35.1989C49.5833 35.194 49.6822 35.293 49.6872 35.4167C49.6872 35.4415 49.6822 35.4613 49.6773 35.486C49.7812 35.4266 49.8901 35.387 50.0089 35.3573C49.9545 35.4514 49.9149 35.5652 49.905 35.684C49.8703 36.0701 50.1079 36.4066 50.4395 36.4363C50.7662 36.466 51.0582 36.174 51.0929 35.7879C51.1028 35.6642 51.083 35.5504 51.0483 35.4464C51.4196 35.6196 51.7066 35.9414 51.8353 36.3274C51.8353 36.3274 51.8353 36.3274 51.8353 36.3225C51.8551 36.2878 51.87 36.2482 51.8898 36.2087C51.8947 36.1988 51.8947 36.1938 51.8997 36.1839C51.9145 36.1443 51.9294 36.1097 51.9393 36.0701C51.9442 36.0602 51.9442 36.0503 51.9492 36.0453C51.9591 36.0057 51.969 35.9661 51.9789 35.9265C51.9789 35.9166 51.9838 35.9067 51.9838 35.8968C51.9937 35.8473 51.9987 35.7929 52.0036 35.7434C52.0531 35.1989 51.8007 34.699 51.3899 34.3971C51.3107 34.3723 51.2265 34.3476 51.1473 34.3327C51.0236 34.308 50.9048 34.308 50.7811 34.2981C50.6573 34.3129 50.5435 34.3129 50.4197 34.3476C50.1723 34.3872 49.9297 34.4763 49.6971 34.5901C49.5288 34.6743 49.3605 34.7634 49.2021 34.8624C49.0932 35.0455 49.0239 35.2583 49.0042 35.4811C49.0042 35.5355 49.0042 35.585 49.0042 35.6394Z" fill="#3B2313"/>
<path id="Vector_36" d="M49.6773 35.4859C49.6822 35.4661 49.6921 35.4414 49.6872 35.4166C49.6822 35.2929 49.5832 35.1989 49.4595 35.1989C49.3357 35.2038 49.2417 35.3028 49.2417 35.4265C49.2466 35.5404 49.3357 35.6295 49.4496 35.6394C49.4545 35.6394 49.4644 35.6443 49.4694 35.6443C49.5733 35.6394 49.6525 35.575 49.6773 35.4859Z" fill="white"/>
<path id="Vector_37" d="M50.3506 33.8377C49.5141 33.9367 48.445 34.4564 48.1579 35.4216C48.1183 35.5503 48.0985 35.6741 48.0886 35.7928C48.0787 35.9364 48.0936 36.075 48.1381 36.2235C48.1431 36.2334 48.1431 36.2433 48.1431 36.2482C48.148 36.2581 48.148 36.273 48.153 36.2829C48.148 36.273 48.148 36.268 48.148 36.2581C48.1035 36.0849 48.2322 35.8473 48.3114 35.7137C48.4103 35.5404 48.544 35.382 48.6875 35.2484C48.8459 35.0999 49.0192 34.9762 49.2023 34.8623C49.3656 34.7633 49.529 34.6742 49.6973 34.5901C49.9299 34.4762 50.1724 34.3921 50.4199 34.3476C50.5436 34.3129 50.6624 34.3129 50.7812 34.2981C50.905 34.303 51.0237 34.308 51.1475 34.3327C51.2267 34.3476 51.3108 34.3723 51.39 34.3971C51.6424 34.4713 51.8701 34.5703 51.8701 34.5703C52.2414 34.7386 52.4294 34.8277 52.5829 34.9564C52.7116 35.0653 52.9442 35.2979 53.0927 35.7186C53.0976 35.7334 53.1026 35.7483 53.1075 35.7631C53.1125 35.684 53.1075 35.585 53.0927 35.481C53.0778 35.3424 53.0432 35.189 52.9739 35.0356C52.5829 34.11 51.3257 33.7239 50.3506 33.8377Z" fill="#EDA585"/>
<path id="Vector_38" d="M52.3402 36.6492C52.0877 36.7877 51.8205 36.8917 51.5532 36.9808C51.276 37.055 50.9988 37.1144 50.7117 37.1293C50.0534 37.2085 49.2764 37.1095 48.6626 36.8471C48.5191 36.7877 48.3656 36.6195 48.3211 36.5898C48.3161 36.5848 48.3112 36.5848 48.3062 36.5848C48.2914 36.5997 48.4844 36.8075 48.5339 36.857C49.1279 37.4559 50.4296 37.352 50.7315 37.3223C51.2364 37.2679 52.1818 37.1738 52.7856 36.4462C52.8846 36.3274 52.9539 36.2136 52.9985 36.1344C52.9886 36.1443 52.9787 36.1542 52.9688 36.1641C52.7807 36.367 52.5827 36.5106 52.3402 36.6492Z" fill="#EDA585"/>
<path id="Vector_39" d="M48.6232 33.4566C48.7766 33.4368 48.9152 33.4121 49.0538 33.3873C49.7269 33.2636 50.2268 33.12 50.994 33.0458C51.192 33.026 51.4098 33.0161 51.6375 33.0112C52.4641 32.9914 53.4292 33.0607 54.1271 33.2586C54.2905 33.3032 54.4043 33.0904 54.2657 32.9914C53.8153 32.6647 52.6026 32.1846 52.4393 32.1301C51.8058 31.9321 50.9891 31.8084 50.3308 31.8529C49.5289 31.9024 48.7716 32.2242 48.0242 32.4964C47.8015 32.5756 47.6431 32.7884 47.653 33.0211C47.6728 33.4863 48.2173 33.516 48.6232 33.4566Z" fill="#4A1B24"/>
<path id="Vector_40" d="M37.427 33.0111C37.4023 33.021 37.3775 33.0309 37.3577 33.0458C36.5113 33.516 36.0708 34.4465 35.9718 35.382C35.9669 35.4265 35.9669 35.4562 35.9619 35.481C35.9768 35.3424 36.0114 35.1889 36.0807 35.0306C36.4816 34.1099 37.7388 33.7189 38.7139 33.8377C39.5504 33.9367 40.6195 34.4564 40.9066 35.4216C40.9462 35.5503 40.966 35.674 40.9759 35.7928C41.0155 35.4315 40.9808 35.0652 40.8818 34.7187C40.7284 34.199 40.4166 33.7387 40.0107 33.3873C39.3376 33.2635 38.8376 33.12 38.0705 33.0458C37.8774 33.026 37.6547 33.0161 37.427 33.0111Z" fill="#EFB08E"/>
<path id="Vector_41" d="M40.7531 35.7136C40.6541 35.5404 40.5205 35.382 40.377 35.2484C40.2186 35.0999 40.0453 34.9761 39.8622 34.8623C39.9711 35.0454 40.0404 35.2583 40.0602 35.481C40.0651 35.5354 40.0651 35.5849 40.0651 35.6394C40.0651 35.6493 40.0651 35.6592 40.0651 35.674C40.0651 35.7087 40.0602 35.7433 40.0602 35.773C39.9958 35.7433 39.9265 35.7235 39.8523 35.7334C39.8177 35.7384 39.783 35.7483 39.7484 35.7582C39.59 35.8176 39.4811 35.976 39.4959 36.1541C39.5108 36.3224 39.6296 36.4511 39.783 36.4957C39.5355 36.8372 39.1495 37.0748 38.6941 37.1144C38.0754 37.1688 37.5161 36.8421 37.2389 36.3274C37.2389 36.3274 37.2389 36.3274 37.2389 36.3224C37.2191 36.2878 37.2043 36.2581 37.1894 36.2234C37.1845 36.2135 37.1795 36.1987 37.1746 36.1888C37.1597 36.1541 37.1498 36.1195 37.135 36.0848C37.13 36.0749 37.1251 36.0601 37.1201 36.0502C37.1102 36.0156 37.1003 35.976 37.0904 35.9364C37.0855 35.9265 37.0855 35.9116 37.0805 35.9017C37.0706 35.8522 37.0657 35.7978 37.0607 35.7483C37.0112 35.2038 37.2637 34.7039 37.6745 34.402C37.422 34.4762 37.1944 34.5752 37.1944 34.5752C36.8231 34.7435 36.6351 34.8326 36.4816 34.9613C36.3529 35.0702 36.1203 35.3028 35.9718 35.7235C35.9867 35.877 36.0312 36.0255 36.1054 36.164C36.2935 36.3719 36.4866 36.5155 36.7291 36.6491C36.9815 36.7877 37.2488 36.8916 37.521 36.9807C37.7982 37.055 38.0754 37.1144 38.3625 37.1292C39.0208 37.2084 39.7979 37.1094 40.4116 36.8471C40.5552 36.7877 40.7086 36.6194 40.7531 36.5897C40.8274 36.4907 40.8818 36.3818 40.9214 36.263C40.961 36.0898 40.8323 35.8522 40.7531 35.7136Z" fill="white"/>
<path id="Vector_42" d="M39.59 35.6444C39.491 35.6444 39.4118 35.5751 39.387 35.486C39.2831 35.4266 39.1742 35.387 39.0554 35.3573C39.1099 35.4513 39.1495 35.5652 39.1594 35.684C39.194 36.07 38.9564 36.4066 38.6248 36.4363C38.2981 36.466 38.0061 36.174 37.9714 35.7879C37.9615 35.6642 37.9813 35.5503 38.016 35.4464C37.6448 35.6196 37.3577 35.9414 37.229 36.3274C37.5062 36.8372 38.0655 37.1639 38.6842 37.1144C39.1396 37.0748 39.5256 36.8372 39.7731 36.4957C39.6197 36.4512 39.5009 36.3225 39.486 36.1542C39.4712 35.976 39.5801 35.8176 39.7385 35.7582C39.6989 35.7186 39.6543 35.679 39.6098 35.6394C39.6048 35.6394 39.5999 35.6444 39.59 35.6444Z" fill="#5E3923"/>
<path id="Vector_43" d="M40.0553 35.7731C40.0602 35.7384 40.0602 35.7038 40.0602 35.6741C40.0602 35.7038 40.0553 35.7384 40.0553 35.7731Z" fill="#5E3923"/>
<path id="Vector_44" d="M37.0558 35.7433C37.0608 35.7978 37.0657 35.8473 37.0756 35.8968C37.0756 35.9067 37.0806 35.9215 37.0855 35.9314C37.0954 35.971 37.1004 36.0057 37.1152 36.0453C37.1202 36.0552 37.1251 36.07 37.1301 36.0799C37.14 36.1145 37.1548 36.1541 37.1697 36.1838C37.1746 36.1937 37.1796 36.2086 37.1845 36.2185C37.1993 36.2531 37.2142 36.2878 37.234 36.3175C37.234 36.3175 37.234 36.3175 37.234 36.3224C37.3627 35.9364 37.6498 35.6146 38.021 35.4414C37.9814 35.5453 37.9665 35.6592 37.9764 35.7829C38.0111 36.169 38.3031 36.4561 38.6298 36.4313C38.9565 36.4016 39.199 36.0651 39.1643 35.679C39.1544 35.5552 39.1149 35.4464 39.0604 35.3523C39.1742 35.382 39.2881 35.4266 39.392 35.481C39.3871 35.4612 39.3772 35.4365 39.3821 35.4117C39.3871 35.288 39.4861 35.1939 39.6098 35.1939C39.7336 35.1989 39.8276 35.2979 39.8276 35.4216C39.8226 35.5354 39.7336 35.6245 39.6197 35.6344C39.6643 35.6691 39.7088 35.7087 39.7484 35.7532C39.7831 35.7384 39.8177 35.7285 39.8523 35.7285C39.9266 35.7235 39.9959 35.7384 40.0602 35.7681C40.0652 35.7334 40.0652 35.7037 40.0652 35.6691C40.0652 35.6592 40.0652 35.6493 40.0652 35.6344C40.0652 35.5849 40.0652 35.5305 40.0602 35.4761C40.0404 35.2484 39.9711 35.0405 39.8622 34.8573C39.6989 34.7584 39.5356 34.6693 39.3673 34.5851C39.1347 34.4713 38.8971 34.3871 38.6446 34.3426C38.5209 34.3079 38.4021 34.3079 38.2833 34.2931C38.1596 34.298 38.0408 34.303 37.917 34.3277C37.8379 34.3426 37.7537 34.3673 37.6745 34.3921C37.2587 34.699 37.0113 35.1989 37.0558 35.7433Z" fill="#3B2313"/>
<path id="Vector_45" d="M39.59 35.6444C39.5949 35.6444 39.6048 35.6394 39.6098 35.6394C39.7236 35.6295 39.8127 35.5404 39.8177 35.4266C39.8226 35.3029 39.7236 35.2039 39.5999 35.1989C39.4761 35.194 39.3771 35.293 39.3722 35.4167C39.3722 35.4414 39.3771 35.4612 39.3821 35.486C39.4167 35.5751 39.4959 35.6394 39.59 35.6444Z" fill="white"/>
<path id="Vector_46" d="M38.7189 33.8378C37.7438 33.7239 36.4866 34.11 36.0857 35.0306C36.0164 35.189 35.9817 35.3424 35.9669 35.481C35.957 35.585 35.952 35.684 35.952 35.7632C35.957 35.7483 35.9619 35.7335 35.9669 35.7186C36.1203 35.2979 36.348 35.0653 36.4767 34.9564C36.6301 34.8277 36.8133 34.7435 37.1894 34.5703C37.1894 34.5703 37.4171 34.4713 37.6695 34.3971C37.7487 34.3723 37.8329 34.3476 37.9121 34.3327C38.0358 34.308 38.1546 34.308 38.2783 34.2981C38.4021 34.3129 38.5159 34.3129 38.6397 34.3476C38.8872 34.3872 39.1297 34.4763 39.3623 34.5901C39.5306 34.6742 39.6989 34.7633 39.8573 34.8623C40.0404 34.9762 40.2136 35.0999 40.372 35.2484C40.5205 35.387 40.6492 35.5404 40.7482 35.7137C40.8274 35.8522 40.9561 36.0898 40.9115 36.2581C40.9115 36.268 40.9115 36.273 40.9066 36.2829C40.9115 36.273 40.9115 36.2581 40.9165 36.2482C40.9214 36.2383 40.9214 36.2284 40.9264 36.2185C40.9709 36.07 40.9858 35.9314 40.9759 35.7879C40.966 35.6642 40.9462 35.5454 40.9066 35.4167C40.6245 34.4565 39.5553 33.9367 38.7189 33.8378Z" fill="#EDA585"/>
<path id="Vector_47" d="M38.3575 37.1243C38.0704 37.1094 37.7883 37.05 37.5161 36.9758C37.2439 36.8916 36.9766 36.7827 36.7242 36.6442C36.4816 36.5105 36.2886 36.367 36.1005 36.1591C36.0906 36.1492 36.0807 36.1393 36.0708 36.1294C36.1153 36.2086 36.1846 36.3224 36.2836 36.4412C36.8875 37.1688 37.8279 37.2678 38.3377 37.3173C38.6397 37.347 39.9414 37.4509 40.5354 36.852C40.5799 36.8025 40.7779 36.5996 40.763 36.5798C40.763 36.5798 40.7581 36.5798 40.7482 36.5848C40.7036 36.6145 40.5502 36.7778 40.4067 36.8421C39.7929 37.1045 39.0158 37.2035 38.3575 37.1243Z" fill="#EDA585"/>
<path id="Vector_48" d="M34.9373 33.2586C35.6402 33.0606 36.6004 32.9913 37.427 33.0111C37.6547 33.0161 37.8725 33.026 38.0704 33.0457C38.8376 33.115 39.3375 33.2635 40.0107 33.3873C40.1443 33.412 40.2879 33.4368 40.4413 33.4566C40.8472 33.516 41.3916 33.4813 41.4114 33.026C41.4213 32.7884 41.258 32.5805 41.0402 32.5013C40.2928 32.2291 39.5405 31.9073 38.7337 31.8578C38.0754 31.8182 37.2587 31.942 36.6251 32.135C36.4618 32.1845 35.2492 32.6646 34.7987 32.9963C34.6602 33.0903 34.774 33.3081 34.9373 33.2586Z" fill="#4A1B24"/>
</g>
</g>
<circle id="Ellipse 188" cx="44.2352" cy="44.4125" r="43" stroke="#C6C6C6" stroke-width="2"/>
</g>
</svg>
