<svg width="89" height="89" viewBox="0 0 89 89" fill="none" xmlns="http://www.w3.org/2000/svg">
<g id="Group 6356648">
<g id="Clip path group">
<mask id="mask0_1_1942" style="mask-type:luminance" maskUnits="userSpaceOnUse" x="2" y="2" width="85" height="85">
<g id="SVGID_2_">
<path id="Vector" d="M2.26949 44.3794C2.25059 67.7737 21.2013 86.7397 44.5956 86.7397C67.9899 86.7397 86.9713 67.7737 86.9902 44.3794C87.0141 20.9851 68.0633 2.01904 44.6641 2.01904C21.2698 2.01904 2.28839 20.9851 2.26949 44.3794Z" fill="white"/>
</g>
</mask>
<g mask="url(#mask0_1_1942)">
<path id="Vector_2" d="M44.5956 86.7397C67.9906 86.7397 86.9713 67.7743 86.9902 44.3794C87.0091 20.9844 68.059 2.01904 44.6641 2.01904C21.2691 2.01904 2.28839 20.9844 2.26949 44.3794C2.25059 67.7743 21.2006 86.7397 44.5956 86.7397Z" fill="#EC6493"/>
</g>
</g>
<g id="Clip path group_2">
<mask id="mask1_1_1942" style="mask-type:luminance" maskUnits="userSpaceOnUse" x="2" y="2" width="85" height="85">
<g id="SVGID_2__2">
<path id="Vector_3" d="M2.28735 44.3779C2.28735 67.7818 21.2459 86.7557 44.631 86.7557C68.0161 86.7557 86.9746 67.7818 86.9746 44.3779C86.9796 20.9739 68.021 2 44.631 2C21.2459 2 2.28735 20.9739 2.28735 44.3779Z" fill="white"/>
</g>
</mask>
<g mask="url(#mask1_1_1942)">
<path id="Vector_4" d="M32.8986 32.0616L41.6268 53.3429L37.355 64.99L31.0771 66.8379C31.0771 66.8379 33.4725 60.0155 32.3347 55.6304C31.1969 51.2403 22.3788 45.9262 21.9746 42.7247C21.2959 37.3857 24.884 32.0966 24.884 32.0966C24.884 32.0966 26.7404 28.4356 27.3193 25.0344C28.1727 20.05 28.9662 17.5477 31.0771 14.4162C33.9216 10.2009 45.1101 4.85186 53.2894 11.5744C53.2894 11.5744 58.5992 11.8591 62.881 18.1071C65.9301 22.5572 68.1109 29.8191 64.5628 40.8568C62.0925 48.5383 63.4249 49.9317 64.2783 51.495C65.1317 53.0582 69.4134 63.7813 66.4192 68.7907C63.4249 73.8002 45.6241 62.1481 45.6241 62.1481L46.0833 52.9683L41.6318 28.056L32.8986 32.0616Z" fill="#AA6F38"/>
</g>
</g>
<g id="Clip path group_3">
<mask id="mask2_1_1942" style="mask-type:luminance" maskUnits="userSpaceOnUse" x="2" y="2" width="85" height="85">
<g id="SVGID_2__3">
<path id="Vector_5" d="M2.28735 44.3779C2.28735 67.7818 21.2459 86.7557 44.631 86.7557C68.0161 86.7557 86.9746 67.7818 86.9746 44.3779C86.9796 20.9739 68.021 2 44.631 2C21.2459 2 2.28735 20.9739 2.28735 44.3779Z" fill="white"/>
</g>
</mask>
<g mask="url(#mask2_1_1942)">
<path id="Vector_6" d="M72.178 70.2541C68.6498 69.0804 50.9588 65.849 50.9588 50.6509L45.619 53.1931L40.2793 50.6509C40.2793 65.854 22.5883 69.0804 19.0601 70.2541C14.3641 71.8173 13.885 87.41 13.885 87.41H45.5941H45.654H77.363C77.3531 87.41 76.874 71.8173 72.178 70.2541Z" fill="#2F2C7A"/>
</g>
</g>
<g id="Clip path group_4">
<mask id="mask3_1_1942" style="mask-type:luminance" maskUnits="userSpaceOnUse" x="2" y="2" width="85" height="85">
<g id="SVGID_2__4">
<path id="Vector_7" d="M2.28735 44.3779C2.28735 67.7818 21.2459 86.7557 44.631 86.7557C68.0161 86.7557 86.9746 67.7818 86.9746 44.3779C86.9796 20.9739 68.021 2 44.631 2C21.2459 2 2.28735 20.9739 2.28735 44.3779Z" fill="white"/>
</g>
</mask>
<g mask="url(#mask3_1_1942)">
<path id="Vector_8" d="M34.231 63.4416C37.5995 64.7951 41.4571 65.5643 45.5592 65.5643C49.6962 65.5643 53.5838 64.7802 56.9673 63.4067C53.5638 60.5399 50.9588 56.4744 50.9588 50.6459L45.6191 53.188L40.2793 50.6459C40.2743 56.4994 37.6544 60.5748 34.231 63.4416Z" fill="#F7AD7C"/>
</g>
</g>
<g id="Clip path group_5">
<mask id="mask4_1_1942" style="mask-type:luminance" maskUnits="userSpaceOnUse" x="2" y="2" width="85" height="85">
<g id="SVGID_2__5">
<path id="Vector_9" d="M2.28735 44.3779C2.28735 67.7818 21.2459 86.7557 44.631 86.7557C68.0161 86.7557 86.9746 67.7818 86.9746 44.3779C86.9796 20.9739 68.021 2 44.631 2C21.2459 2 2.28735 20.9739 2.28735 44.3779Z" fill="white"/>
</g>
</mask>
<g mask="url(#mask4_1_1942)">
<path id="Vector_10" d="M45.619 53.188L40.3641 50.6858C40.3342 50.9805 40.2993 51.2652 40.2543 51.5499C40.1196 54.3917 39.3511 56.794 38.1733 58.8268C40.424 60.2452 43.024 61.0643 45.8037 61.0643C48.4686 61.0643 50.9787 60.3151 53.1645 58.9966C51.8071 56.7141 50.9638 53.9672 50.9638 50.6459L45.619 53.188Z" fill="#E2945F"/>
</g>
</g>
<g id="Clip path group_6">
<mask id="mask5_1_1942" style="mask-type:luminance" maskUnits="userSpaceOnUse" x="2" y="2" width="85" height="85">
<g id="SVGID_2__6">
<path id="Vector_11" d="M2.28735 44.3779C2.28735 67.7818 21.2459 86.7557 44.631 86.7557C68.0161 86.7557 86.9746 67.7818 86.9746 44.3779C86.9796 20.9739 68.021 2 44.631 2C21.2459 2 2.28735 20.9739 2.28735 44.3779Z" fill="white"/>
</g>
</mask>
<g mask="url(#mask5_1_1942)">
<path id="Vector_12" d="M31.9504 34.2241C31.9504 34.2241 31.1569 31.7619 29.6249 32.586C28.0878 33.4101 28.9063 42.9744 31.137 44.0832C33.3727 45.1919 33.9166 42.2003 33.9166 42.2003L31.9504 34.2241Z" fill="#F6AA75"/>
</g>
</g>
<g id="Clip path group_7">
<mask id="mask6_1_1942" style="mask-type:luminance" maskUnits="userSpaceOnUse" x="2" y="2" width="85" height="85">
<g id="SVGID_2__7">
<path id="Vector_13" d="M2.28735 44.3779C2.28735 67.7818 21.2459 86.7557 44.631 86.7557C68.0161 86.7557 86.9746 67.7818 86.9746 44.3779C86.9796 20.9739 68.021 2 44.631 2C21.2459 2 2.28735 20.9739 2.28735 44.3779Z" fill="white"/>
</g>
</mask>
<g mask="url(#mask6_1_1942)">
<path id="Vector_14" d="M59.7619 34.2241C59.7619 34.2241 60.5554 31.7619 62.0874 32.586C63.6245 33.4101 62.806 42.9744 60.5753 44.0832C58.3396 45.1919 57.7957 42.2003 57.7957 42.2003L59.7619 34.2241Z" fill="#F6AA75"/>
</g>
</g>
<g id="Clip path group_8">
<mask id="mask7_1_1942" style="mask-type:luminance" maskUnits="userSpaceOnUse" x="2" y="2" width="85" height="85">
<g id="SVGID_2__8">
<path id="Vector_15" d="M2.28735 44.3779C2.28735 67.7818 21.2459 86.7557 44.631 86.7557C68.0161 86.7557 86.9746 67.7818 86.9746 44.3779C86.9796 20.9739 68.021 2 44.631 2C21.2459 2 2.28735 20.9739 2.28735 44.3779Z" fill="white"/>
</g>
</mask>
<g mask="url(#mask7_1_1942)">
<path id="Vector_16" d="M60.5254 33.7197C60.3507 21.5033 54.8912 15.9595 45.7987 15.9595C36.7111 15.9545 31.2516 21.4983 31.077 33.7197C30.9023 45.9361 38.4378 53.8923 43.4033 56.4045C44.3265 56.869 45.7987 56.9139 45.7987 56.9139C45.7987 56.9139 47.2708 56.869 48.1941 56.4045C53.1645 53.8923 60.7 45.9361 60.5254 33.7197Z" fill="#F8BB90"/>
</g>
</g>
<g id="Clip path group_9">
<mask id="mask8_1_1942" style="mask-type:luminance" maskUnits="userSpaceOnUse" x="2" y="2" width="85" height="85">
<g id="SVGID_2__9">
<path id="Vector_17" d="M2.28735 44.3779C2.28735 67.7818 21.2459 86.7557 44.631 86.7557C68.0161 86.7557 86.9746 67.7818 86.9746 44.3779C86.9796 20.9739 68.021 2 44.631 2C21.2459 2 2.28735 20.9739 2.28735 44.3779Z" fill="white"/>
</g>
</mask>
<g mask="url(#mask8_1_1942)">
<path id="Vector_18" d="M50.824 47.5693L45.8037 48.1237L40.7783 47.5693C40.7783 47.5693 41.9511 50.8607 45.8037 50.8607C49.297 50.8557 50.824 47.5693 50.824 47.5693Z" fill="#E94949"/>
</g>
</g>
<g id="Clip path group_10">
<mask id="mask9_1_1942" style="mask-type:luminance" maskUnits="userSpaceOnUse" x="2" y="2" width="85" height="85">
<g id="SVGID_2__10">
<path id="Vector_19" d="M2.28735 44.3779C2.28735 67.7818 21.2459 86.7557 44.631 86.7557C68.0161 86.7557 86.9746 67.7818 86.9746 44.3779C86.9796 20.9739 68.021 2 44.631 2C21.2459 2 2.28735 20.9739 2.28735 44.3779Z" fill="white"/>
</g>
</mask>
<g mask="url(#mask9_1_1942)">
<path id="Vector_20" d="M49.2422 31.3474C49.2422 31.3474 49.5516 32.2814 50.7992 32.0766C52.0418 31.8668 55.3604 30.6832 57.3316 32.1066C57.3316 32.1016 55.2556 28.6454 49.2422 31.3474Z" fill="#AA6F38"/>
</g>
</g>
<g id="Clip path group_11">
<mask id="mask10_1_1942" style="mask-type:luminance" maskUnits="userSpaceOnUse" x="2" y="2" width="85" height="85">
<g id="SVGID_2__11">
<path id="Vector_21" d="M2.28735 44.3779C2.28735 67.7818 21.2459 86.7557 44.631 86.7557C68.0161 86.7557 86.9746 67.7818 86.9746 44.3779C86.9796 20.9739 68.021 2 44.631 2C21.2459 2 2.28735 20.9739 2.28735 44.3779Z" fill="white"/>
</g>
</mask>
<g mask="url(#mask10_1_1942)">
<path id="Vector_22" d="M55.8295 35.283C55.4103 34.5488 54.2625 34.0194 52.9051 34.0194C51.5477 34.0194 50.3999 34.5488 49.9807 35.283C50.3999 36.0172 51.5477 36.5466 52.9051 36.5466C54.2575 36.5466 55.4103 36.0172 55.8295 35.283Z" fill="#FEF8F9"/>
</g>
</g>
<g id="Clip path group_12">
<mask id="mask11_1_1942" style="mask-type:luminance" maskUnits="userSpaceOnUse" x="2" y="2" width="85" height="85">
<g id="SVGID_2__12">
<path id="Vector_23" d="M2.28735 44.3779C2.28735 67.7818 21.2459 86.7557 44.631 86.7557C68.0161 86.7557 86.9746 67.7818 86.9746 44.3779C86.9796 20.9739 68.021 2 44.631 2C21.2459 2 2.28735 20.9739 2.28735 44.3779Z" fill="white"/>
</g>
</mask>
<g mask="url(#mask11_1_1942)">
<path id="Vector_24" d="M55.4004 34.0144C54.3874 33.5849 51.3981 32.5011 49.9758 35.278C50.395 34.5439 51.5428 34.0144 52.9002 34.0144C54.2576 34.0144 55.4054 34.5439 55.8246 35.278C55.8246 35.278 56.7977 35.1782 57.0672 34.0144C57.0722 34.0144 56.4135 34.444 55.4004 34.0144Z" fill="#1D1837"/>
</g>
</g>
<g id="Clip path group_13">
<mask id="mask12_1_1942" style="mask-type:luminance" maskUnits="userSpaceOnUse" x="2" y="2" width="85" height="85">
<g id="SVGID_2__13">
<path id="Vector_25" d="M2.28735 44.3779C2.28735 67.7818 21.2459 86.7557 44.631 86.7557C68.0161 86.7557 86.9746 67.7818 86.9746 44.3779C86.9796 20.9739 68.021 2 44.631 2C21.2459 2 2.28735 20.9739 2.28735 44.3779Z" fill="white"/>
</g>
</mask>
<g mask="url(#mask12_1_1942)">
<path id="Vector_26" d="M51.8821 34.1243C51.5528 34.404 51.3481 34.8185 51.3481 35.283C51.3481 35.7475 51.5577 36.162 51.8821 36.4417C52.2015 36.5116 52.5458 36.5466 52.9002 36.5466C53.2295 36.5466 53.5439 36.5166 53.8434 36.4567C54.1827 36.177 54.3973 35.7525 54.3973 35.278C54.3973 34.8035 54.1827 34.384 53.8434 34.0993C53.5439 34.0394 53.2295 34.0094 52.9002 34.0094C52.5458 34.0144 52.2015 34.0543 51.8821 34.1243Z" fill="#305EA9"/>
</g>
</g>
<g id="Clip path group_14">
<mask id="mask13_1_1942" style="mask-type:luminance" maskUnits="userSpaceOnUse" x="2" y="2" width="85" height="85">
<g id="SVGID_2__14">
<path id="Vector_27" d="M2.28735 44.3779C2.28735 67.7818 21.2459 86.7557 44.631 86.7557C68.0161 86.7557 86.9746 67.7818 86.9746 44.3779C86.9796 20.9739 68.021 2 44.631 2C21.2459 2 2.28735 20.9739 2.28735 44.3779Z" fill="white"/>
</g>
</mask>
<g mask="url(#mask13_1_1942)">
<path id="Vector_28" d="M42.4602 31.3473C42.4602 31.3473 42.1508 32.2813 40.9032 32.0765C39.6605 31.8667 36.3419 30.683 34.3707 32.1065C34.211 32.3712 35.8529 28.3806 42.4602 31.3473Z" fill="#AA6F38"/>
</g>
</g>
<g id="Clip path group_15">
<mask id="mask14_1_1942" style="mask-type:luminance" maskUnits="userSpaceOnUse" x="2" y="2" width="85" height="85">
<g id="SVGID_2__15">
<path id="Vector_29" d="M2.28735 44.3779C2.28735 67.7818 21.2459 86.7557 44.631 86.7557C68.0161 86.7557 86.9746 67.7818 86.9746 44.3779C86.9796 20.9739 68.021 2 44.631 2C21.2459 2 2.28735 20.9739 2.28735 44.3779Z" fill="white"/>
</g>
</mask>
<g mask="url(#mask14_1_1942)">
<path id="Vector_30" d="M35.7781 35.283C36.1973 34.5488 37.3451 34.0194 38.7025 34.0194C40.0599 34.0194 41.2076 34.5488 41.6268 35.283C41.2076 36.0172 40.0599 36.5466 38.7025 36.5466C37.3451 36.5466 36.1973 36.0172 35.7781 35.283Z" fill="#FEF8F9"/>
</g>
</g>
<g id="Clip path group_16">
<mask id="mask15_1_1942" style="mask-type:luminance" maskUnits="userSpaceOnUse" x="2" y="2" width="85" height="85">
<g id="SVGID_2__16">
<path id="Vector_31" d="M2.28735 44.3779C2.28735 67.7818 21.2459 86.7557 44.631 86.7557C68.0161 86.7557 86.9746 67.7818 86.9746 44.3779C86.9796 20.9739 68.021 2 44.631 2C21.2459 2 2.28735 20.9739 2.28735 44.3779Z" fill="white"/>
</g>
</mask>
<g mask="url(#mask15_1_1942)">
<path id="Vector_32" d="M36.2022 34.0144C37.2153 33.5849 40.2045 32.5011 41.6268 35.278C41.2076 34.5439 40.0598 34.0144 38.7024 34.0144C37.345 34.0144 36.1972 34.5439 35.778 35.278C35.778 35.278 34.8049 35.1782 34.5354 34.0144C34.5304 34.0144 35.1942 34.444 36.2022 34.0144Z" fill="#1D1837"/>
</g>
</g>
<g id="Clip path group_17">
<mask id="mask16_1_1942" style="mask-type:luminance" maskUnits="userSpaceOnUse" x="2" y="2" width="85" height="85">
<g id="SVGID_2__17">
<path id="Vector_33" d="M2.28735 44.3779C2.28735 67.7818 21.2459 86.7557 44.631 86.7557C68.0161 86.7557 86.9746 67.7818 86.9746 44.3779C86.9796 20.9739 68.021 2 44.631 2C21.2459 2 2.28735 20.9739 2.28735 44.3779Z" fill="white"/>
</g>
</mask>
<g mask="url(#mask16_1_1942)">
<path id="Vector_34" d="M39.7205 34.1243C40.0499 34.404 40.2545 34.8185 40.2545 35.283C40.2545 35.7475 40.0449 36.162 39.7205 36.4417C39.4011 36.5116 39.0568 36.5466 38.7024 36.5466C38.3731 36.5466 38.0587 36.5166 37.7593 36.4567C37.4199 36.177 37.2053 35.7525 37.2053 35.278C37.2053 34.8035 37.4199 34.384 37.7593 34.0993C38.0537 34.0394 38.3731 34.0094 38.7024 34.0094C39.0618 34.0144 39.4011 34.0543 39.7205 34.1243Z" fill="#305EA9"/>
</g>
</g>
<g id="Clip path group_18">
<mask id="mask17_1_1942" style="mask-type:luminance" maskUnits="userSpaceOnUse" x="2" y="2" width="85" height="85">
<g id="SVGID_2__18">
<path id="Vector_35" d="M2.28735 44.3779C2.28735 67.7818 21.2459 86.7557 44.631 86.7557C68.0161 86.7557 86.9746 67.7818 86.9746 44.3779C86.9796 20.9739 68.021 2 44.631 2C21.2459 2 2.28735 20.9739 2.28735 44.3779Z" fill="white"/>
</g>
</mask>
<g mask="url(#mask17_1_1942)">
<path id="Vector_36" d="M46.0781 43.9983C46.0781 43.9983 47.191 42.2852 48.2939 43.384C48.2939 43.384 48.3088 43.8735 47.3108 43.7836C47.3108 43.7836 46.8766 43.5938 46.0781 43.9983Z" fill="#CC6B3F"/>
</g>
</g>
<g id="Clip path group_19">
<mask id="mask18_1_1942" style="mask-type:luminance" maskUnits="userSpaceOnUse" x="2" y="2" width="85" height="85">
<g id="SVGID_2__19">
<path id="Vector_37" d="M2.28735 44.3779C2.28735 67.7818 21.2459 86.7557 44.631 86.7557C68.0161 86.7557 86.9746 67.7818 86.9746 44.3779C86.9796 20.9739 68.021 2 44.631 2C21.2459 2 2.28735 20.9739 2.28735 44.3779Z" fill="white"/>
</g>
</mask>
<g mask="url(#mask18_1_1942)">
<path id="Vector_38" d="M45.5642 43.9833C45.5642 43.9833 44.3565 42.2053 43.3135 43.2392C43.3135 43.2392 43.3235 43.7286 44.3166 43.6986C44.3166 43.6986 44.7407 43.5288 45.5642 43.9833Z" fill="#CC6B3F"/>
</g>
</g>
<g id="Clip path group_20">
<mask id="mask19_1_1942" style="mask-type:luminance" maskUnits="userSpaceOnUse" x="2" y="2" width="85" height="85">
<g id="SVGID_2__20">
<path id="Vector_39" d="M2.28735 44.3779C2.28735 67.7818 21.2459 86.7557 44.631 86.7557C68.0161 86.7557 86.9746 67.7818 86.9746 44.3779C86.9796 20.9739 68.021 2 44.631 2C21.2459 2 2.28735 20.9739 2.28735 44.3779Z" fill="white"/>
</g>
</mask>
<g mask="url(#mask19_1_1942)">
<path id="Vector_40" d="M46.3128 46.8101C46.3128 46.8101 46.1082 46.9 45.7988 46.915C45.4944 46.905 45.2848 46.8101 45.2848 46.8101C44.0173 46.6203 40.5789 47.6043 40.5789 47.6043C42.5052 48.1686 44.2718 48.3834 45.7988 48.4084C47.3259 48.3784 49.0925 48.1636 51.0188 47.6043C51.0238 47.6092 47.5804 46.6203 46.3128 46.8101Z" fill="#D82122"/>
</g>
</g>
<g id="Clip path group_21">
<mask id="mask20_1_1942" style="mask-type:luminance" maskUnits="userSpaceOnUse" x="2" y="2" width="85" height="85">
<g id="SVGID_2__21">
<path id="Vector_41" d="M2.28735 44.3779C2.28735 67.7818 21.2459 86.7557 44.631 86.7557C68.0161 86.7557 86.9746 67.7818 86.9746 44.3779C86.9796 20.9739 68.021 2 44.631 2C21.2459 2 2.28735 20.9739 2.28735 44.3779Z" fill="white"/>
</g>
</mask>
<g mask="url(#mask20_1_1942)">
<path id="Vector_42" d="M52.8701 16.3839C52.8701 16.3839 52.8901 22.7119 49.9757 23.4211C44.5311 24.7496 31.6409 26.0682 31.072 35.218C31.072 35.218 29.7944 30.3035 29.7944 28.4555C29.7944 26.6126 36.9856 9.7713 52.8701 16.3839Z" fill="#AA6F38"/>
</g>
</g>
<g id="Clip path group_22">
<mask id="mask21_1_1942" style="mask-type:luminance" maskUnits="userSpaceOnUse" x="2" y="2" width="85" height="85">
<g id="SVGID_2__22">
<path id="Vector_43" d="M2.28735 44.3779C2.28735 67.7818 21.2459 86.7557 44.631 86.7557C68.0161 86.7557 86.9746 67.7818 86.9746 44.3779C86.9796 20.9739 68.021 2 44.631 2C21.2459 2 2.28735 20.9739 2.28735 44.3779Z" fill="white"/>
</g>
</mask>
<g mask="url(#mask21_1_1942)">
<path id="Vector_44" d="M52.8701 16.384C52.8701 16.384 52.9599 20.3795 54.3972 21.9428C60.6701 28.7652 60.5853 33.3301 60.5254 35.9922C60.5254 35.9922 62.1573 28.7702 61.3039 25.1392C60.4555 21.4983 59.4125 15.3152 52.8701 16.384Z" fill="#AA6F38"/>
</g>
</g>
<g id="Clip path group_23">
<mask id="mask22_1_1942" style="mask-type:luminance" maskUnits="userSpaceOnUse" x="2" y="2" width="85" height="85">
<g id="SVGID_2__23">
<path id="Vector_45" d="M2.28735 44.3779C2.28735 67.7818 21.2459 86.7557 44.631 86.7557C68.0161 86.7557 86.9746 67.7818 86.9746 44.3779C86.9796 20.9739 68.021 2 44.631 2C21.2459 2 2.28735 20.9739 2.28735 44.3779Z" fill="white"/>
</g>
</mask>
<g mask="url(#mask22_1_1942)">
<path id="Vector_46" d="M28.9661 43.5887C28.9661 44.3329 29.5699 44.9372 30.3135 44.9372C31.057 44.9372 31.6609 44.3329 31.6609 43.5887C31.6609 42.8446 31.057 42.2402 30.3135 42.2402C29.5699 42.2402 28.9661 42.8446 28.9661 43.5887Z" fill="#FEF8F9"/>
</g>
</g>
<g id="Clip path group_24">
<mask id="mask23_1_1942" style="mask-type:luminance" maskUnits="userSpaceOnUse" x="2" y="2" width="85" height="85">
<g id="SVGID_2__24">
<path id="Vector_47" d="M2.28735 44.3779C2.28735 67.7818 21.2459 86.7557 44.631 86.7557C68.0161 86.7557 86.9746 67.7818 86.9746 44.3779C86.9796 20.9739 68.021 2 44.631 2C21.2459 2 2.28735 20.9739 2.28735 44.3779Z" fill="white"/>
</g>
</mask>
<g mask="url(#mask23_1_1942)">
<path id="Vector_48" d="M59.9116 43.5887C59.9116 44.3329 60.5155 44.9372 61.259 44.9372C62.0026 44.9372 62.6064 44.3329 62.6064 43.5887C62.6064 42.8446 62.0026 42.2402 61.259 42.2402C60.5155 42.2402 59.9116 42.8446 59.9116 43.5887Z" fill="#FEF8F9"/>
</g>
</g>
<g id="Clip path group_25">
<mask id="mask24_1_1942" style="mask-type:luminance" maskUnits="userSpaceOnUse" x="2" y="2" width="85" height="84">
<g id="SVGID_2__25">
<path id="Vector_49" d="M2.28735 44C2.28735 67.1953 21.0921 86 44.2874 86C67.4826 86 86.2874 67.1953 86.2874 44C86.2923 20.8047 67.4876 2 44.2874 2C21.0921 2 2.28735 20.8047 2.28735 44Z" fill="white"/>
</g>
</mask>
<g mask="url(#mask24_1_1942)">
<path id="Vector_50" d="M23.6264 33.729C23.6264 33.729 19.5576 41.8518 23.2502 46.7473C26.2746 50.7617 29.2742 52.801 27.5863 57.845C25.8984 62.884 21.5326 72.1205 25.1905 76.6546C25.1905 76.6546 24.4877 71.3038 26.3191 68.4328C26.3191 68.4328 25.4727 74.15 27.1656 77.3922C28.8535 80.6294 27.3042 81.758 26.1805 82.4609C26.1805 82.4609 31.0463 81.4759 30.091 77.6743C29.1356 73.8728 29.596 66.542 32.0363 64.6363C34.4815 62.7305 35.8923 57.3995 34.2736 54.0187C32.6501 50.633 23.6264 33.729 23.6264 33.729Z" fill="#AA6F38"/>
</g>
</g>
<circle id="Ellipse 188" cx="44.7476" cy="44.4486" r="43" stroke="#C6C6C6" stroke-width="2"/>
</g>
</svg>
