<svg width="22" height="22" viewBox="0 0 22 22" fill="none" xmlns="http://www.w3.org/2000/svg">
<g id="Help and Support">
<path id="Vector" d="M10.9033 12.6478V12.5441C10.9033 11.908 11.2384 11.319 11.7853 10.9941L12.2594 10.7125C12.9396 10.3083 13.3565 9.57569 13.3565 8.7845C13.3565 7.54598 12.3525 6.54196 11.1139 6.54196H10.9033C9.54838 6.54196 8.45003 7.64031 8.45003 8.99519V9.13371M10.9033 14.6103V15.0464M10.9033 3.271L11.7578 3.31899L12.6016 3.46235L13.424 3.69929L14.2148 4.02683L14.9639 4.44084L15.6619 4.93611L16.3001 5.50643L16.8704 6.14462L17.3657 6.84265L17.7797 7.59174L18.1072 8.38248L18.3442 9.20492L18.4875 10.0487L18.5355 10.9033L18.4875 11.7578L18.3442 12.6016L18.1072 13.424L17.7797 14.2148L17.3657 14.9639L16.8704 15.6619L16.3001 16.3001L15.6619 16.8704L14.9639 17.3657L14.2148 17.7797L13.424 18.1072L12.6016 18.3442L11.7578 18.4875L10.9033 18.5355L10.0487 18.4875L9.20492 18.3442L8.38248 18.1072L7.59174 17.7797L6.84265 17.3657L6.14462 16.8704L5.50643 16.3001L4.93611 15.6619L4.44084 14.9639L4.02683 14.2148L3.69929 13.424L3.46235 12.6016L3.31899 11.7578L3.271 10.9033L3.31899 10.0487L3.46235 9.20492L3.69929 8.38248L4.02683 7.59174L4.44084 6.84265L4.93611 6.14462L5.50643 5.50643L6.14462 4.93611L6.84265 4.44084L7.59174 4.02683L8.38248 3.69929L9.20492 3.46235L10.0487 3.31899L10.9033 3.271Z" stroke="#434343" stroke-width="1.3629" stroke-linecap="round" stroke-linejoin="round"/>
</g>
</svg>
