<svg width="35" height="36" viewBox="0 0 35 36" fill="none" xmlns="http://www.w3.org/2000/svg">
<g id="Group 6356651">
<g id="Group 6356649">
<circle id="Ellipse 158" cx="17.5" cy="18" r="16.5" fill="#EAEAEA" stroke="white" stroke-width="2"/>
<path id="Vector" d="M18 10.5C14.6916 10.5 12 13.0994 12 16.2946C12 20.2598 17.3694 26.081 17.598 26.3269C17.8127 26.5579 18.1876 26.5575 18.402 26.3269C18.6306 26.081 24 20.2598 24 16.2946C23.9999 13.0994 21.3084 10.5 18 10.5ZM18 19.21C16.3355 19.21 14.9813 17.9021 14.9813 16.2946C14.9813 14.687 16.3355 13.3792 18 13.3792C19.6645 13.3792 21.0187 14.687 21.0187 16.2946C21.0187 17.9022 19.6645 19.21 18 19.21Z" fill="#D00D4F"/>
</g>
</g>
</svg>
