<svg width="22" height="22" viewBox="0 0 22 22" fill="none" xmlns="http://www.w3.org/2000/svg">
<g id="Logout">
<path id="Vector" d="M4.54287 10.9032L8.17728 7.26884M4.54287 10.9032L8.17728 14.5377M4.54287 10.9032H13.6289M9.08589 19.0807C10.1598 19.0807 11.2231 18.8692 12.2152 18.4582C13.2074 18.0472 14.1089 17.4449 14.8682 16.6856C15.6275 15.9262 16.2299 15.0247 16.6408 14.0326C17.0518 13.0405 17.2633 11.9771 17.2633 10.9032C17.2633 9.82938 17.0518 8.76602 16.6408 7.77389C16.2299 6.78176 15.6275 5.88028 14.8682 5.12094C14.1089 4.3616 13.2074 3.75925 12.2152 3.3483C11.2231 2.93735 10.1598 2.72583 9.08589 2.72583" stroke="#434343" stroke-width="1.3629" stroke-linecap="round" stroke-linejoin="round"/>
</g>
</svg>
