<svg width="22" height="24" viewBox="0 0 22 24" fill="none" xmlns="http://www.w3.org/2000/svg">
<g id="Group">
<path id="Vector" d="M11.0468 7.99286C9.75153 7.99286 8.43964 8.49104 7.44327 9.48741C5.45053 11.4802 5.45053 14.7018 7.44327 16.6945L14.4179 23.6857C14.7168 23.9846 15.1984 23.9846 15.4973 23.6857L21.6249 17.558C21.9239 17.2591 21.9239 16.7775 21.6249 16.4786L14.6503 9.48741C13.654 8.49104 12.3421 7.99286 11.0468 7.99286ZM10.1169 12.1776C10.6815 11.613 11.5948 11.613 12.176 12.1776C12.7406 12.7422 12.7406 13.6556 12.176 14.2368C11.6114 14.8014 10.6981 14.8014 10.1335 14.2368C9.55225 13.6556 9.55225 12.7422 10.1169 12.1776Z" fill="#FF6864"/>
<path id="Vector_2" d="M11.0468 7.99286C9.75153 7.99286 8.43964 8.49104 7.44327 9.48741C5.45053 11.4802 5.45053 14.7018 7.44327 16.6945L11.2627 20.5139L14.667 17.1096C16.7593 15.0007 16.7593 11.5964 14.6503 9.48741C13.654 8.49104 12.3421 7.99286 11.0468 7.99286ZM12.176 14.2202C11.6114 14.7848 10.6981 14.7848 10.1335 14.2202C9.56886 13.6556 9.56886 12.7422 10.1335 12.161C10.6981 11.5964 11.6114 11.5964 12.1926 12.161C12.7406 12.7422 12.7406 13.6556 12.176 14.2202Z" fill="#DD3128"/>
<path id="Vector_3" d="M1 0.719324C2.19564 0.553263 3.52414 0.935205 4.32123 1.88176C5.35082 3.12722 5.40064 4.83766 5.16815 6.36542C4.88584 8.15889 4.08875 9.67005 3.52414 11.3639C3.12559 12.5429 2.81007 14.27 4.07214 15.0505C4.98548 15.6151 6.24755 15.449 7.24392 15.2497C7.24392 15.2497 9.43594 14.4692 10.9803 13.0079" stroke="#DD3128" stroke-width="0.180918" stroke-miterlimit="10"/>
</g>
</svg>
