<svg width="65" height="15" viewBox="0 0 65 15" fill="none" xmlns="http://www.w3.org/2000/svg">
<g id="Group">
<path id="Vector" d="M7.08246 6.84295H4.89692V10.606C4.89692 11.0333 5.06125 11.2962 5.40633 11.4112C5.75142 11.5263 6.31013 11.5591 7.08246 11.5098V14.402C5.06125 14.6156 3.64804 14.4184 2.87571 13.8104C2.10338 13.2024 1.70899 12.1343 1.70899 10.5896V6.84295H0V3.77005H1.70899V1.74884L4.89692 0.795746V3.77005H7.08246V6.84295Z" fill="black"/>
<path id="Vector_2" d="M11.5357 10.376C11.8973 11.3619 12.7518 11.8713 14.0828 11.8713C14.9537 11.8713 15.6275 11.6084 16.1204 11.0661L18.6675 12.5287C17.6158 13.9912 16.0711 14.7142 14.0335 14.7142C12.2423 14.7142 10.8127 14.1883 9.74458 13.1202C8.67646 12.0521 8.13419 10.7211 8.13419 9.09423C8.13419 7.48384 8.66003 6.15279 9.71172 5.08467C10.7634 4.01655 12.1273 3.47427 13.787 3.47427C15.3317 3.47427 16.6134 4.01655 17.6487 5.08467C18.6839 6.15279 19.1933 7.48384 19.1933 9.09423C19.1933 9.55435 19.144 9.9816 19.0619 10.376H11.5357ZM11.47 7.99325H16.0383C15.7261 6.87583 14.9702 6.31712 13.787 6.31712C12.5546 6.30069 11.7822 6.8594 11.47 7.99325Z" fill="black"/>
<path id="Vector_3" d="M27.2454 3.47427C28.3792 3.47427 29.3323 3.86866 30.0882 4.64099C30.8441 5.41332 31.2221 6.49788 31.2221 7.87822V14.402H28.0341V8.35476C28.0341 7.73033 27.8534 7.25378 27.5083 6.92513C27.1632 6.59647 26.7195 6.43215 26.1773 6.43215C25.5692 6.43215 25.0927 6.61291 24.7312 6.99086C24.3697 7.35237 24.2053 7.91108 24.2053 8.63412V14.4348H21.0174V3.77006H24.2053V4.77245C24.8462 3.91795 25.865 3.47427 27.2454 3.47427Z" fill="black"/>
<path id="Vector_4" d="M39.652 3.47427C40.7858 3.47427 41.7389 3.86866 42.4948 4.64099C43.2507 5.41332 43.6287 6.49788 43.6287 7.87822V14.402H40.4407V8.35476C40.4407 7.73033 40.26 7.25378 39.9149 6.92513C39.5698 6.59647 39.1261 6.43215 38.5839 6.43215C37.9758 6.43215 37.4993 6.61291 37.1378 6.99086C36.7763 7.35237 36.6119 7.91108 36.6119 8.63412V14.4348H33.424V3.77006H36.6119V4.77245C37.2528 3.91795 38.2552 3.47427 39.652 3.47427Z" fill="black"/>
<path id="Vector_5" d="M48.6736 10.376C49.0351 11.3619 49.8896 11.8713 51.2206 11.8713C52.0916 11.8713 52.7653 11.6084 53.2583 11.0661L55.8053 12.5287C54.7536 13.9912 53.209 14.7142 51.1713 14.7142C49.3802 14.7142 47.9505 14.1883 46.8824 13.1202C45.8143 12.0521 45.272 10.7211 45.272 9.09423C45.272 7.48384 45.7979 6.15279 46.8496 5.08467C47.9012 4.01655 49.2652 3.47427 50.9248 3.47427C52.4695 3.47427 53.7513 4.01655 54.7865 5.08467C55.8218 6.15279 56.3312 7.48384 56.3312 9.09423C56.3312 9.55435 56.2819 9.9816 56.1997 10.376H48.6736ZM48.6078 7.99325H53.1761C52.8639 6.87583 52.108 6.31712 50.9248 6.31712C49.6924 6.30069 48.9201 6.8594 48.6078 7.99325Z" fill="black"/>
<path id="Vector_6" d="M61.343 5.67625C61.5402 5.00251 61.9346 4.47667 62.5426 4.11515C63.1506 3.75363 63.8079 3.57288 64.531 3.57288V7.18806C63.7586 7.05659 63.0192 7.18806 62.3454 7.58244C61.6717 7.97682 61.343 8.65056 61.343 9.62008V14.4348H58.1551V3.77007H61.343V5.67625Z" fill="black"/>
</g>
</svg>
