<svg width="21" height="20" viewBox="0 0 21 20" fill="none" xmlns="http://www.w3.org/2000/svg">
<g id="Frame">
<g id="Group">
<path id="Vector" d="M15.1975 6.59918H13.4917C13.3259 6.59918 13.1669 6.66503 13.0497 6.78224C12.9325 6.89945 12.8667 7.05842 12.8667 7.22418C12.8667 7.38994 12.9325 7.54892 13.0497 7.66613C13.1669 7.78334 13.3259 7.84918 13.4917 7.84918H15.1979C15.5425 7.84918 15.8229 8.1296 15.8229 8.47418V16.6475C15.8229 16.9921 15.5425 17.2725 15.1979 17.2725H5.80249C5.45791 17.2725 5.17749 16.9921 5.17749 16.6475V8.47418C5.17749 8.1296 5.45791 7.84918 5.80249 7.84918H7.50874C7.6745 7.84918 7.83347 7.78334 7.95068 7.66613C8.06789 7.54892 8.13374 7.38994 8.13374 7.22418C8.13374 7.05842 8.06789 6.89945 7.95068 6.78224C7.83347 6.66503 7.6745 6.59918 7.50874 6.59918H5.80249C5.30538 6.59974 4.82879 6.79746 4.47727 7.14897C4.12576 7.50048 3.92804 7.97707 3.92749 8.47418V16.6475C3.92749 17.6813 4.76874 18.5225 5.80249 18.5225H15.1979C16.2317 18.5225 17.0729 17.6813 17.0729 16.6475V8.47418C17.0722 7.97703 16.8744 7.50044 16.5229 7.14894C16.1713 6.79744 15.6946 6.59974 15.1975 6.59918ZM8.16957 5.33752L9.89582 3.61127V11.8396C9.89582 11.9217 9.91199 12.0029 9.9434 12.0788C9.97481 12.1546 10.0208 12.2235 10.0789 12.2815C10.1369 12.3396 10.2058 12.3856 10.2816 12.417C10.3575 12.4484 10.4387 12.4646 10.5208 12.4646C10.6029 12.4646 10.6842 12.4484 10.76 12.417C10.8358 12.3856 10.9047 12.3396 10.9628 12.2815C11.0208 12.2235 11.0668 12.1546 11.0982 12.0788C11.1297 12.0029 11.1458 11.9217 11.1458 11.8396V3.61127L12.8721 5.33752C12.9942 5.4596 13.1542 5.52043 13.3142 5.52043C13.4742 5.52043 13.6342 5.4596 13.7562 5.33752C13.8734 5.22031 13.9392 5.06137 13.9392 4.89564C13.9392 4.72991 13.8734 4.57097 13.7562 4.45377L10.9633 1.66043C10.9053 1.60235 10.8364 1.55628 10.7605 1.52485C10.6847 1.49341 10.6034 1.47723 10.5212 1.47723C10.4391 1.47723 10.3578 1.49341 10.282 1.52485C10.2061 1.55628 10.1372 1.60235 10.0792 1.66043L7.28582 4.45377C7.22613 4.51142 7.17852 4.58039 7.14576 4.65664C7.113 4.73289 7.09576 4.8149 7.09504 4.89789C7.09432 4.98088 7.11013 5.06318 7.14156 5.13999C7.17299 5.2168 7.21939 5.28658 7.27808 5.34526C7.33676 5.40395 7.40654 5.45036 7.48335 5.48178C7.56016 5.51321 7.64246 5.52902 7.72545 5.5283C7.80844 5.52758 7.89045 5.51034 7.9667 5.47758C8.04295 5.44483 8.11192 5.39721 8.16957 5.33752Z" fill="white"/>
</g>
</g>
</svg>
